<!-- icon666.com - MILLIONS OF FREE VECTOR ICONS --><svg id="Solid" viewBox="0 0 64 64" xmlns="http://www.w3.org/2000/svg"><path d="m43.987 9.315a15.952 15.952 0 0 0 -10.237 2.714v-1.029a10.762 10.762 0 0 0 -10.75-10.75 1.75 1.75 0 0 0 0 3.5 7.258 7.258 0 0 1 7.25 7.25v1.029a15.946 15.946 0 0 0 -10.237-2.714c-11.713 1.101-18.805 11.465-17.637 25.791.807 9.9 5.317 19.64 11.491 24.818 3.346 2.806 7.021 4.113 10.621 3.773a15.245 15.245 0 0 0 6.349-2.1 2.29 2.29 0 0 1 2.326 0 15.246 15.246 0 0 0 6.348 2.1q.559.052 1.12.053a14.851 14.851 0 0 0 9.5-3.826c6.176-5.178 10.686-14.924 11.493-24.818 1.168-14.326-5.919-24.69-17.637-25.791z"></path></svg>