<?xml version="1.0" encoding="utf-8"?>
<!-- Generator: Adobe Illustrator 21.1.0, SVG Export Plug-In . SVG Version: 6.00 Build 0)  -->
<svg version="1.1" id="Capa_1" xmlns="http://www.w3.org/2000/svg" xmlns:xlink="http://www.w3.org/1999/xlink" x="0px" y="0px"
	 viewBox="0 0 512 512" style="enable-background:new 0 0 512 512;" xml:space="preserve">
<g>
	<path d="M256,421.6c-91.5,0-165.6-74.2-165.6-165.6S164.5,90.4,256,90.4S421.6,164.5,421.6,256S347.5,421.6,256,421.6z
		 M286.1,158.1l4.5-6c5-6.7,3.6-16.1-3-21.1c-6.7-5-16.1-3.6-21.1,3L256,148.1L245.5,134c-5-6.7-14.4-8-21.1-3c-6.7,5-8,14.4-3,21.1
		l4.5,6h-7.5c-8.3,0-15.1,6.7-15.1,15.1s6.7,15.1,15.1,15.1h7.5l-4.5,6c-5,6.7-3.6,16.1,3,21.1c6.7,5,16.1,3.6,21.1-3l10.5-14.1
		l10.5,14.1c5,6.7,14.4,8,21.1,3c6.7-5,8-14.4,3-21.1l-4.5-6h7.5c8.3,0,15.1-6.7,15.1-15.1s-6.7-15.1-15.1-15.1H286.1z"/>
</g>
</svg>
