<?xml version="1.0" encoding="utf-8"?>
<!-- Generator: Adobe Illustrator 21.1.0, SVG Export Plug-In . SVG Version: 6.00 Build 0)  -->
<svg version="1.1" id="Capa_1" xmlns="http://www.w3.org/2000/svg" xmlns:xlink="http://www.w3.org/1999/xlink" x="0px" y="0px"
	 viewBox="0 0 556.2 556.2" style="enable-background:new 0 0 556.2 556.2;" xml:space="preserve">
<path d="M278.1,104.3c-95.8,0-173.8,78-173.8,173.8s78,173.8,173.8,173.8s173.8-78,173.8-173.8S374,104.3,278.1,104.3L278.1,104.3z
	 M304.4,219.5l-1.7,13.7l-13.7,1.7l-10.9,8.5l-10.9-8.5l-13.7-1.7l-1.7-13.7l-8.5-10.9l8.5-10.9l1.7-13.7l13.7-1.7l10.9-8.5
	l10.9,8.5l13.7,1.7l1.7,13.7l8.5,10.9C312.9,208.6,304.4,219.5,304.4,219.5L304.4,219.5z"/>
</svg>
