<!-- icon666.com - MILLIONS OF FREE VECTOR ICONS --><svg id="Layer_1" enable-background="new 0 0 53 53" viewBox="0 0 53 53" xmlns="http://www.w3.org/2000/svg"><g id="_x35_6"><path d="m26.5 2.5c-13.2299805 0-24 10.7700195-24 24 0 13.2399902 10.7700195 24 24 24 13.2399902 0 24-10.7600098 24-24 0-13.2299805-10.7600098-24-24-24zm11.9299927 35.2900391c-1.4599609 1.539978-3.8900146 1.6099854-5.4199829.1499634-1.0599976-1-2.0900269-4.8800049-2.6500244-7.789978 2.9400024.4000244 6.8600464 1.2199707 7.9200439 2.2199707 1.539978 1.4600219 1.5999756 3.8900146.1499634 5.4200439zm-8.6599732 3.8999633c-.7000122.75-1.6500244 1.1900024-2.6700439 1.2200317-1.039978.0499878-2-.3200073-2.75-1.0200195s-1.1899414-1.6500244-1.2199707-2.6699829c-.0599976-1.460022 1.9299927-4.9500122 3.5700073-7.4100342 1.8099976 2.3400269 4.039978 5.6700439 4.0999756 7.1300049.0300293 1.0200196-.3299561 2-1.0299683 2.75zm-15.5900268-5.7199707v-.1600342c0-.9599609.3500366-1.8800049 1-2.5999756.9899902-1.0800171 4.8500366-2.1799927 7.7399902-2.789978-.3399658 2.9400024-1.0799561 6.8899536-2.0700073 7.9599609-1.4218884 1.5662918-3.8425274 1.682148-5.4199829.25-.7600098-.6900024-1.2000122-1.6400146-1.25-2.6599731zm0-20.3200073c.6699829-.7700195 1.6099854-1.2299805 2.6300049-1.2999878h.25c.9400024 0 1.8300171.3299561 2.5300293.9500122 1.0999756.9699707 2.2699585 4.8099976 2.9299927 7.6899414-2.9500122-.289978-6.9000244-.9599609-8-1.9299927-.7700195-.6699829-1.2200317-1.6099854-1.2900391-2.6300049-.0599976-1.0299682.2700195-2.0099487.9500122-2.7799682zm12.3200073-5.5700073c2.1199951 0 3.8400269 1.7200317 3.8400269 3.8300171 0 1.4599609-2.1100464 4.8800049-3.8400269 7.2799683-1.7199707-2.3999634-3.8300171-5.8200073-3.8300171-7.2799683 0-2.1099854 1.7200317-3.8300171 3.8300171-3.8300171zm8.8300171 3.6099853c1.0100098 0 1.9599609.3800049 2.6799927 1.0900269 1.5100098 1.4899902 1.5299683 3.9199829.0499878 5.4299927-1.0200195 1.039978-4.9199829 2-7.8300171 2.5.4500122-2.9199829 1.3300171-6.8400269 2.3600464-7.8800049.7099609-.7299805 1.6699829-1.1400146 2.6999512-1.1400146h.040039zm3.8300171 16.420044h-.0300293c-1.4699707 0-4.9000244-2.0300293-7.3200073-3.710022 2.3800049-1.7700195 5.75-3.9400024 7.210022-3.960022 1.0199585-.0299683 1.9899902.3600464 2.7299805 1.0700073.7399902.710022 1.1600342 1.6699829 1.1799927 2.6900024.0100098 1.0300293-.3699951 2-1.0800171 2.7399902-.7099611.7300416-1.669983 1.1500246-2.6899415 1.1700441zm-25.4300537-6.75c1.4400024-.0900269 4.9800415 1.8399658 7.4700317 3.4299927-2.2999878 1.8599854-5.6000366 4.1499634-7.0599976 4.2299805-2.0900269.1099854-3.9199829-1.5100098-4.0400391-3.6199951-.1099853-2.1199952 1.5200196-3.9299928 3.630005-4.0399781z"></path></g></svg>