<!-- icon666.com - MILLIONS OF FREE VECTOR ICONS --><svg version="1.1" id="Layer_1" xmlns="http://www.w3.org/2000/svg" xmlns:xlink="http://www.w3.org/1999/xlink" x="0px" y="0px" viewBox="0 0 329.845 329.845" style="enable-background:new 0 0 329.845 329.845;" xml:space="preserve"><g id="XMLID_16_"><path id="XMLID_17_" d="M48.251,48.25c-64.334,64.334-64.334,169.012,0,233.346c64.332,64.333,169.01,64.333,233.344-0.001 c64.334-64.333,64.334-169.011,0-233.344C217.262-16.083,112.583-16.083,48.251,48.25z M201.456,107.175l5.893-5.892 c5.857-5.858,15.355-5.858,21.215,0c5.857,5.857,5.857,15.355-0.002,21.214l-5.891,5.892c-5.859,5.858-15.355,5.858-21.215,0.001 C195.598,122.531,195.598,113.033,201.456,107.175z M74.923,164.922c0-8.283,6.715-14.999,15.002-14.999h8.332 c8.283,0,15,6.717,15,15c0,4.143-1.68,7.893-4.395,10.606c-2.715,2.715-6.465,4.394-10.607,4.394h-8.334 C81.637,179.923,74.923,173.206,74.923,164.922z M128.389,222.67l-5.893,5.892c-5.859,5.858-15.355,5.858-21.213,0 c-5.859-5.858-5.859-15.355-0.002-21.213l5.893-5.893c5.857-5.857,15.355-5.858,21.215,0 C134.247,207.314,134.247,216.812,128.389,222.67z M128.389,128.389c-5.857,5.857-15.357,5.857-21.213,0l-5.895-5.893 c-5.857-5.858-5.857-15.355,0.002-21.214c5.857-5.858,15.353-5.858,21.213,0l5.893,5.893 C134.247,113.033,134.247,122.532,128.389,128.389z M179.923,239.922c0,4.143-1.68,7.894-4.395,10.608 c-2.713,2.714-6.463,4.393-10.605,4.393c-8.283,0.001-15-6.715-15-14.998v-8.334c-0.002-8.285,6.715-15,15-15.002 c8.283,0,15,6.716,15,15V239.922z M179.923,98.255c0,4.143-1.68,7.893-4.393,10.607c-2.715,2.715-6.465,4.394-10.607,4.395 c-8.283,0-15-6.716-15-14.999v-8.334c-0.002-8.284,6.715-15,15-15.002c8.283,0.001,15,6.716,15,14.999V98.255z M228.563,228.562 c-5.859,5.858-15.357,5.858-21.215,0l-5.893-5.892c-5.857-5.858-5.857-15.357,0-21.214c5.857-5.857,15.355-5.857,21.213,0 l5.893,5.894C234.421,213.207,234.421,222.705,228.563,228.562z M250.53,175.529c-2.715,2.715-6.465,4.394-10.609,4.394h-8.332 c-8.283,0-15-6.717-15-15.001s6.715-14.999,15.002-14.999h8.334c8.283,0,14.998,6.717,14.998,15 C254.923,169.065,253.243,172.815,250.53,175.529z"></path></g></svg>