<?xml version="1.0" encoding="utf-8"?>
<!-- Generator: Adobe Illustrator 21.1.0, SVG Export Plug-In . SVG Version: 6.00 Build 0)  -->
<svg version="1.1" id="Capa_1" xmlns="http://www.w3.org/2000/svg" xmlns:xlink="http://www.w3.org/1999/xlink" x="0px" y="0px"
	 viewBox="0 0 512 512" style="enable-background:new 0 0 512 512;" xml:space="preserve">
<style type="text/css">
	.st0{display:none;fill:none;stroke:#000000;stroke-width:0.8047;stroke-miterlimit:10;}
</style>
<g>
	<g>
		<path d="M290.6,80.5c-1.1-8-5.1-15.5-11.1-21c-13.1-11.9-33.7-11.9-46.8,0c-6.1,5.5-10,12.9-11.2,21c-30.3,9.7-57.7,32.4-77,64
			c-19.6,32.1-30,70.6-30,111.5c0,40.9,10.4,79.4,30,111.5c19.3,31.6,46.7,54.3,77,64c1.1,8,5.1,15.5,11.1,21
			c13.1,11.9,33.7,11.9,46.8,0c6.1-5.5,10-12.9,11.2-21c19.2-6.1,37.2-17.5,52.8-33.1c9-9,17.2-19.4,24.3-31
			c19.6-32.1,30-70.6,30-111.5c0-40.9-10.4-79.4-30-111.5C348.3,112.9,320.9,90.2,290.6,80.5z"/>
	</g>
</g>
<circle class="st0" cx="256" cy="256" r="206"/>
</svg>
