<svg id="Capa_1" viewBox="0 0 500 500" xmlns="http://www.w3.org/2000/svg"><g><path d="m437.02 74.98c-48.353-48.351-112.64-74.98-181.02-74.98s-132.667 26.629-181.02 74.98c-48.351 48.353-74.98 112.64-74.98 181.02s26.629 132.667 74.98 181.02c48.353 48.351 112.64 74.98 181.02 74.98s132.667-26.629 181.02-74.98c48.351-48.353 74.98-112.64 74.98-181.02s-26.629-132.667-74.98-181.02zm-21.214 340.826c-42.686 42.686-99.439 66.194-159.806 66.194s-117.12-23.508-159.806-66.194-66.194-99.439-66.194-159.806 23.508-117.12 66.194-159.806 99.439-66.194 159.806-66.194 117.12 23.508 159.806 66.194 66.194 99.439 66.194 159.806-23.508 117.12-66.194 159.806z"></path><path d="m437.036 181.013c-9.82-23.708-27.161-43.789-49.09-56.959-13.17-21.928-33.25-39.269-56.959-49.09-23.707-9.819-50.169-11.756-74.987-5.565-24.819-6.193-51.279-4.256-74.987 5.564s-43.789 27.162-56.959 49.09c-21.929 13.17-39.27 33.251-49.09 56.959-9.82 23.709-11.758 50.17-5.564 74.988-6.193 24.817-4.256 51.278 5.564 74.987 9.82 23.708 27.161 43.789 49.09 56.959 13.17 21.928 33.25 39.269 56.959 49.09 14.626 6.058 30.299 9.116 45.988 9.116 9.742 0 19.492-1.18 28.999-3.552 24.817 6.192 51.278 4.255 74.987-5.565 23.709-9.821 43.789-27.162 56.959-49.089 21.929-13.17 39.27-33.25 49.09-56.959s11.758-50.17 5.564-74.988c6.194-24.816 4.256-51.277-5.564-74.986zm-27.717 11.48c6.458 15.59 8.397 32.164 5.764 48.507h-95.817c-1.625-6.853-4.328-13.292-7.934-19.119l67.763-67.763c13.419 9.694 23.767 22.786 30.224 38.375zm-153.319 98.539c-19.316 0-35.032-15.715-35.032-35.032s15.716-35.032 35.032-35.032 35.032 15.715 35.032 35.032-15.716 35.032-35.032 35.032zm63.507-188.351c15.59 6.457 28.681 16.805 38.376 30.224l-67.763 67.763c-5.828-3.607-12.266-6.31-19.12-7.934v-95.817c16.344-2.633 32.917-.694 48.507 5.764zm-127.014 0c11.099-4.598 22.694-6.908 34.353-6.908 4.718 0 9.445.392 14.154 1.151v95.81c-6.853 1.625-13.292 4.327-19.12 7.934l-67.763-67.763c9.696-13.419 22.787-23.767 38.376-30.224zm-89.812 89.812c6.457-15.589 16.805-28.681 30.224-38.376l67.763 67.763c-3.607 5.828-6.31 12.266-7.935 19.12h-95.817c-2.633-16.343-.693-32.917 5.765-48.507zm0 127.014c-6.458-15.59-8.397-32.164-5.764-48.507h95.817c1.625 6.853 4.328 13.291 7.934 19.119l-67.763 67.763c-13.419-9.694-23.767-22.785-30.224-38.375zm89.812 89.813c-15.59-6.458-28.681-16.806-38.376-30.225l67.763-67.763c5.828 3.607 12.266 6.309 19.119 7.934v95.818c-16.342 2.633-32.915.694-48.506-5.764zm127.014 0c-15.59 6.458-32.163 8.397-48.507 5.764v-95.817c6.853-1.625 13.291-4.327 19.119-7.934l67.763 67.763c-9.694 13.418-22.785 23.766-38.375 30.224zm89.812-89.813c-6.457 15.59-16.805 28.681-30.224 38.376l-67.763-67.763c3.607-5.828 6.31-12.266 7.934-19.12h95.817c2.634 16.344.694 32.918-5.764 48.507z"></path></g></svg>