<!-- icon666.com - MILLIONS OF FREE VECTOR ICONS --><svg version="1.1" id="Capa_1" xmlns="http://www.w3.org/2000/svg" xmlns:xlink="http://www.w3.org/1999/xlink" x="0px" y="0px" viewBox="0 0 512 512" style="enable-background:new 0 0 512 512;" xml:space="preserve"><g><g><path d="M383.594,263.55C349.678,230.245,331,186.526,331,140.446v-4.552c0-35.776-24.901-66.081-58.073-73.913 C278.525,43.498,295.713,30,316,30V0c-36.655,0-67.231,26.439-73.713,61.243c-14.65,2.687-28.133,9.679-38.973,20.379 C188.925,95.826,181,114.783,181,135v5.446c0,46.08-18.678,89.799-52.594,123.104c-28.153,27.646-43.567,64.603-43.405,104.061 c0.157,37.869,14.953,73.703,41.663,100.899c26.715,27.202,62.277,42.634,100.134,43.455c9.803,0.214,19.615-0.559,29.202-2.295 c8.551,1.548,17.277,2.33,26.021,2.33c1.06,0,2.121-0.011,3.18-0.034c37.858-0.82,73.419-16.252,100.135-43.455 c26.71-27.197,41.506-63.03,41.663-100.899C427.162,328.152,411.747,291.196,383.594,263.55z"></path></g></g></svg>