<?xml version="1.0" encoding="utf-8"?>
<!-- Generator: Adobe Illustrator 21.1.0, SVG Export Plug-In . SVG Version: 6.00 Build 0)  -->
<svg version="1.1" id="Capa_1" xmlns="http://www.w3.org/2000/svg" xmlns:xlink="http://www.w3.org/1999/xlink" x="0px" y="0px"
	 viewBox="0 0 512 512" style="enable-background:new 0 0 512 512;" xml:space="preserve">
<style type="text/css">
	.st0{display:none;fill:none;stroke:#000000;stroke-width:0.7892;stroke-miterlimit:10;}
</style>
<g>
	<g>
		<g>
			<path d="M171.3,144.9c24.4-13,53.4-20.7,84.7-20.7s60.3,7.6,84.7,20.7c7.8-9.6,15-20.7,21.1-33.2c1.2-2.5,1.1-5.4-0.2-7.8
				c-1.4-2.4-3.9-3.9-6.6-4.1c-26-1.7-50,1.8-67.9,9.7c-3.4-17.7-11.8-37-24.3-55.8c-3.1-4.6-10.6-4.6-13.7,0
				c-12.5,18.8-20.9,38.2-24.3,55.8c-17.9-7.9-41.9-11.4-67.9-9.7c-2.7,0.2-5.2,1.7-6.6,4.1c-1.4,2.4-1.4,5.3-0.2,7.8
				C156.3,124.2,163.5,135.3,171.3,144.9z"/>
			<path d="M256,140.6c-77.2,0-140,50.5-140,112.4c0,94.7,86,208.6,140,208.6s140-113.9,140-208.6C396,191.1,333.1,140.6,256,140.6z
				 M173.7,247.6c-4.6,0-8.2-3.7-8.2-8.2c0-4.5,3.7-8.2,8.2-8.2s8.2,3.7,8.2,8.2C181.8,243.9,178.2,247.6,173.7,247.6z M206.6,330
				c-4.6,0-8.2-3.7-8.2-8.2c0-4.5,3.7-8.2,8.2-8.2c4.5,0,8.2,3.7,8.2,8.2C214.8,326.3,211.2,330,206.6,330z M256,297
				c-4.6,0-8.2-3.7-8.2-8.2c0-4.5,3.7-8.2,8.2-8.2s8.2,3.7,8.2,8.2C264.2,293.4,260.6,297,256,297z M272.5,395.8
				c-4.6,0-8.2-3.7-8.2-8.2c0-4.5,3.7-8.2,8.2-8.2c4.5,0,8.2,3.7,8.2,8.2C280.7,392.1,277,395.8,272.5,395.8z M288.9,214.7
				c-4.6,0-8.2-3.7-8.2-8.2c0-4.5,3.7-8.2,8.2-8.2c4.5,0,8.2,3.7,8.2,8.2C297.1,211,293.4,214.7,288.9,214.7z M305.4,346.5
				c-4.6,0-8.2-3.7-8.2-8.2c0-4.5,3.7-8.2,8.2-8.2c4.5,0,8.2,3.7,8.2,8.2C313.6,342.8,309.9,346.5,305.4,346.5z M321.9,264.1
				c-4.6,0-8.2-3.7-8.2-8.2s3.7-8.2,8.2-8.2c4.5,0,8.2,3.7,8.2,8.2S326.4,264.1,321.9,264.1z"/>
		</g>
	</g>
</g>
<circle class="st0" cx="256" cy="256" r="206"/>
</svg>
