<!-- icon666.com - MILLIONS OF FREE VECTOR ICONS --><svg id="Layer_1" enable-background="new 0 0 512 512" viewBox="0 0 512 512" xmlns="http://www.w3.org/2000/svg"><g><path d="m399.789 124.602c5.002-5.565 8.211-12.397 8.211-20.602 0-17.889-18.7-27.238-24.845-30.311-40.351-20.175-94.88-24.507-117.149-25.436-14.071-47.557-48.193-48.253-50.006-48.253-8.837 0-16 7.163-16 16s7.163 16 16 16c0 0-.236.021-.662-.02.222.021 5.49.587 10.999 7.136 1.983 2.357 4.086 5.576 6.033 9.945-26.446 2.008-69.905 7.818-103.525 24.629-6.145 3.072-24.845 12.422-24.845 30.31 0 8.205 3.209 15.038 8.211 20.602-37.593 27.972-63.121 68.118-63.121 114.718 0 86.205 90.179 272.68 206.91 272.68 116.646 0 206.91-186.434 206.91-272.68 0-46.63-25.565-86.774-63.121-114.718zm-256.634-22.291c30.686-15.343 73.167-20.136 96.264-21.632.372 4.649.581 9.735.581 15.321 0 8.836 7.164 16 16 16 8.837 0 16-7.164 16-16 0-5.437-.184-10.552-.517-15.39 22.835 1.415 66.185 6.113 97.362 21.701 2.232 1.116 3.884 2.074 5.093 2.854-4.913 3.411-15.543 6.835-21.938 6.835-11.74 0-19.622 12.4-14.328 23.12 3.208 6.499 5.632 15.246 5.481 19.282-12.627 4.399-30.594-8.778-36.091-13.962-8.181-7.827-21.711-4.903-25.918 5.618-5 12.503-16.986 29.942-25.144 29.942-8.38 0-20.194-17.723-25.145-29.942-4.213-10.534-17.755-13.429-25.917-5.618-4.463 4.271-23.055 18.503-36.091 13.962-.15-4.037 2.271-12.78 5.464-19.247 5.309-10.618-2.421-23.155-14.311-23.155-6.533 0-17.122-3.491-21.938-6.835 1.209-.78 2.861-1.738 5.093-2.854zm112.845 377.689c-91.821 0-174.91-164.744-174.91-240.68 0-35.863 20.41-69.358 56.492-93.524-3.738 24.075 9.241 33.504 15.263 36.515 19.986 9.993 41.634 3.33 57.65-6.248 26.729 42.649 64.276 42.656 91.011 0 16.015 9.577 37.666 16.24 57.649 6.248 6.022-3.011 19-12.44 15.263-36.516 36.083 24.166 56.492 57.661 56.492 93.524 0 38.575-21.964 100.022-53.413 149.43-21.691 34.08-66.32 91.251-121.497 91.251z"></path><path d="m256 240c-8.836 0-16 7.164-16 16v8c0 8.836 7.164 16 16 16 8.837 0 16-7.164 16-16v-8c0-8.836-7.163-16-16-16z"></path><path d="m256 384c-8.836 0-16 7.164-16 16v8c0 8.836 7.164 16 16 16 8.837 0 16-7.164 16-16v-8c0-8.836-7.163-16-16-16z"></path><path d="m368 240c-8.837 0-16 7.164-16 16v8c0 8.836 7.163 16 16 16s16-7.164 16-16v-8c0-8.836-7.163-16-16-16z"></path><path d="m144 240c-8.836 0-16 7.164-16 16v8c0 8.836 7.164 16 16 16s16-7.164 16-16v-8c0-8.836-7.164-16-16-16z"></path><path d="m200 320c-8.836 0-16 7.164-16 16v8c0 8.836 7.164 16 16 16s16-7.164 16-16v-8c0-8.836-7.164-16-16-16z"></path><path d="m312 320c-8.837 0-16 7.164-16 16v8c0 8.836 7.163 16 16 16s16-7.164 16-16v-8c0-8.836-7.163-16-16-16z"></path></g></svg>