<?xml version="1.0" encoding="utf-8"?>
<!-- Generator: Adobe Illustrator 21.1.0, SVG Export Plug-In . SVG Version: 6.00 Build 0)  -->
<svg version="1.1" id="svg8" xmlns:svg="http://www.w3.org/2000/svg"
	 xmlns="http://www.w3.org/2000/svg" xmlns:xlink="http://www.w3.org/1999/xlink" x="0px" y="0px" viewBox="0 0 512 512"
	 style="enable-background:new 0 0 512 512;" xml:space="preserve">
<style type="text/css">
	.st0{display:none;fill:none;stroke:#000000;stroke-width:0.7892;stroke-miterlimit:10;}
</style>
<g id="layer1">
	<path id="path1274-6-6-1" vector-effect="none" d="M268.2,50.6c-3.3,0-6.6,0.7-9.9,2c-5.1,2-9.2,5.6-12.5,10.2
		c-1.2-2.2-3-4.5-4.1-6.4c-2.4-4.6-8.1-6.4-12.7-3.9l0,0c-4.6,2.4-6.4,8.1-3.9,12.7c2.9,5.4,7.3,13.2,13.1,20.4
		c-0.7,6.7-0.4,14,0.8,22.1c-0.2,0-0.4,0-0.7,0.1h0.6c6-0.2,12.1-0.5,19.1-0.4c-0.4-2.1-0.7-4.1-0.9-6c2.4,1.1,5.1,1.8,8,2.1
		c9,1.2,17.6-2.8,22-9c4.5-6.1,5.7-13.4,4.9-20.3c-0.7-6.9-3.5-13.9-9.6-18.8c-3-2.4-6.9-4-11.2-4.5
		C270.3,50.7,269.3,50.6,268.2,50.6L268.2,50.6z M268.8,69c0.1,0,0.2,0,0.3,0c0.7,0.1,1.1,0.5,1.6,0.9c1,0.8,2.4,3.3,2.8,6.3
		c0.3,2.9-0.5,6-1.5,7.3c-0.9,1.3-1.1,1.8-4.3,1.4c-2.8-0.4-5.9-2.4-9.1-5.1c1.8-5.2,4.2-8.6,6.7-9.6C267,69.3,268,69,268.8,69
		L268.8,69z M253.5,114.1c-3.3,0-7.3,2.5-12.3,11.1c-5,8.6-9.8,22.1-13.6,38.7c-7.7,33.2-11.9,78.7-12.1,124
		c-0.2,45.4,3.5,90.8,11,123.9c3.7,16.6,8.6,30.1,13.7,38.6c5.1,8.5,9.3,11.2,13.4,11.2c4.1,0,8.4-2.7,13.6-11.2
		c5.2-8.5,10.1-22,14-38.6c7.8-33.2,11.9-78.6,11.9-123.9s-4.2-90.8-12-123.9c-3.9-16.6-8.9-30.1-14-38.6
		C261.9,116.8,257.6,114.1,253.5,114.1z M312.1,121.1c13.3,10.3,24.8,24.1,34.2,40c20.8,35.2,32.2,81.1,33.8,127.1
		c1.6,46-6.5,92.1-26.7,127.7c-7.2,12.8-16.2,24.3-26.8,33.6c21.3-9.6,39.5-23.5,54.4-40c29.5-32.8,46.1-76.3,48.3-119.8
		c2.3-43.5-9.8-87.4-38.5-120.6C371.8,147,345.5,130,312.1,121.1L312.1,121.1z M192.2,122.4c-32.9,8.8-58.8,25.5-77.6,47.2
		c-28.3,32.8-40.2,76-38,118.9s18.6,85.7,47.7,118.2c14.7,16.3,32.7,30,53.6,39.4c-10.4-9.2-19.3-20.5-26.5-33.1
		c-19.9-35.1-27.9-80.6-26.3-125.9c1.6-45.3,12.9-90.6,33.3-125.3C167.7,146.1,179.1,132.6,192.2,122.4z M223.4,118.4
		c-18.8,8.7-34.5,25-47.3,46.8c-19.6,33.2-31.1,78.6-32.7,124c-1.6,45.3,6.8,90.5,25.4,123.3c13.1,23.2,30.9,40.5,54.6,48.6
		c-5.7-11.1-10.1-24.9-13.7-40.7c-8.3-36.5-12.1-84-11.8-131.6c0.2-47.6,4.6-95.1,13-131.5C214.3,142.2,218.4,129.1,223.4,118.4z
		 M284.7,116.7c5.2,10.6,9.3,23.5,12.7,38.1c8.7,36.8,12.9,84.6,12.9,132.7s-4.1,95.8-12.8,132.7c-3.8,15.8-8.3,29.7-14.1,40.8
		c23.7-8.2,41.5-25.6,54.7-48.9c18.7-33.1,27.2-78.5,25.6-124.2c-1.6-45.7-13.2-91.4-32.9-124.9
		C318.2,141.8,302.8,125.7,284.7,116.7L284.7,116.7z"/>
</g>
<circle class="st0" cx="256" cy="256" r="206"/>
</svg>
