<!-- icon666.com - MILLIONS OF FREE VECTOR ICONS --><svg version="1.1" id="Capa_1" xmlns="http://www.w3.org/2000/svg" xmlns:xlink="http://www.w3.org/1999/xlink" x="0px" y="0px" viewBox="0 0 512.001 512.001" style="enable-background:new 0 0 512.001 512.001;" xml:space="preserve"><g><g><g><path d="M469.002,406.487L270.368,8.886C267.651,3.439,262.086,0,256.001,0c-6.086,0-11.65,3.439-14.368,8.886L42.999,406.48 c-3.09,6.184-1.879,13.651,3.012,18.537c56.088,56.092,130.665,86.984,209.99,86.984h0.004 c79.322,0,153.903-30.893,209.986-86.977C470.881,420.134,472.092,412.672,469.002,406.487z M256.001,52.001l143.358,286.955 c-80.643,74.428-205.806,74.212-286.477-0.486L256.001,52.001z M256.001,479.877c-66.903,0-130.014-24.638-178.98-69.621 l21.003-42.041c45.457,39.002,101.948,58.574,158.467,58.574c56.26,0,112.47-19.411,157.723-58.099l20.768,41.571 C386.014,455.242,322.903,479.877,256.001,479.877z"></path><path d="M256.001,160.62c6.655,0,12.046-5.396,12.046-12.046V134.52c0-6.651-5.392-12.046-12.046-12.046 c-6.655,0-12.046,5.396-12.046,12.046v14.054C243.954,155.224,249.346,160.62,256.001,160.62z"></path><path d="M268.141,358.124V344.07c0.001-6.65-5.391-12.046-12.046-12.046c-6.655,0-12.046,5.396-12.046,12.046v14.054 c0,6.655,5.392,12.046,12.046,12.046C262.748,370.171,268.141,364.778,268.141,358.124z"></path><path d="M299.167,252.977c6.655,0,12.046-5.396,12.046-12.046v-14.054c0-6.651-5.392-12.046-12.046-12.046 c-6.655,0-12.046,5.396-12.046,12.046v14.054C287.12,247.581,292.512,252.977,299.167,252.977z"></path><path d="M206.81,214.831c-6.654,0-12.046,5.396-12.046,12.046v14.054c0,6.65,5.391,12.046,12.046,12.046 s12.046-5.396,12.046-12.046v-14.054C218.857,220.226,213.465,214.831,206.81,214.831z"></path><path d="M170.671,297.148c-6.654,0-12.046,5.396-12.046,12.046v14.054c-0.001,6.65,5.391,12.046,12.046,12.046 s12.046-5.396,12.046-12.046v-14.054C182.717,302.544,177.325,297.148,170.671,297.148z"></path><path d="M341.33,335.295c6.655,0,12.046-5.396,12.046-12.046v-14.054c0-6.65-5.392-12.046-12.046-12.046 c-6.654,0-12.046,5.396-12.046,12.046v14.054C329.283,329.899,334.676,335.295,341.33,335.295z"></path></g></g></g></svg>