<!-- icon666.com - MILLIONS OF FREE VECTOR ICONS --><svg id="Capa_1" enable-background="new 0 0 512 512" viewBox="0 0 512 512" xmlns="http://www.w3.org/2000/svg"><g><path d="m437.02 74.98c-48.353-48.351-112.64-74.98-181.02-74.98s-132.667 26.629-181.02 74.98c-48.351 48.353-74.98 112.64-74.98 181.02s26.629 132.667 74.98 181.02c48.353 48.351 112.64 74.98 181.02 74.98s132.667-26.629 181.02-74.98c48.351-48.353 74.98-112.64 74.98-181.02s-26.629-132.667-74.98-181.02zm-407.02 181.02c0-87.554 50.047-163.638 123.034-201.151-5.693 6.98-11.129 14.575-16.262 22.788-29.919 47.872-46.397 111.216-46.397 178.363s16.478 130.491 46.397 178.363c5.133 8.213 10.569 15.808 16.262 22.788-72.987-37.513-123.034-113.597-123.034-201.151zm132.212 162.463c-26.979-43.167-41.837-100.864-41.837-162.463s14.858-119.296 41.837-162.463c14.38-23.008 31.188-40.209 49.338-50.872-4.667 10.992-8.907 24.089-12.705 39.284-11.669 46.675-18.095 108.487-18.095 174.051s6.426 127.376 18.095 174.051c3.799 15.195 8.038 28.292 12.705 39.284-18.15-10.663-34.958-27.864-49.338-50.872zm93.788 63.537c-2.628 0-15.879-10.539-28.051-59.225-11.091-44.364-17.199-103.592-17.199-166.775s6.108-122.411 17.199-166.775c12.172-48.686 25.423-59.225 28.051-59.225s15.88 10.539 28.051 59.225c11.091 44.364 17.199 103.592 17.199 166.775s-6.108 122.411-17.199 166.775c-12.171 48.686-25.423 59.225-28.051 59.225zm44.45-12.665c4.667-10.992 8.906-24.089 12.705-39.284 11.669-46.675 18.095-108.487 18.095-174.051s-6.426-127.376-18.095-174.051c-3.799-15.195-8.038-28.292-12.705-39.284 18.149 10.663 34.958 27.864 49.338 50.872 26.979 43.167 41.837 100.864 41.837 162.463s-14.858 119.296-41.837 162.463c-14.38 23.008-31.188 40.209-49.338 50.872zm58.514-12.184c5.694-6.98 11.13-14.575 16.263-22.789 29.92-47.872 46.397-111.215 46.397-178.363s-16.478-130.491-46.397-178.363c-5.133-8.213-10.57-15.808-16.263-22.789 72.989 37.514 123.036 113.598 123.036 201.153s-50.047 163.639-123.036 201.151z"></path></g></svg>