<?xml version="1.0" encoding="utf-8"?>
<!-- Generator: Adobe Illustrator 21.1.0, SVG Export Plug-In . SVG Version: 6.00 Build 0)  -->
<svg version="1.1" id="Layer_1" xmlns="http://www.w3.org/2000/svg" xmlns:xlink="http://www.w3.org/1999/xlink" x="0px" y="0px"
	 viewBox="0 0 512 512" style="enable-background:new 0 0 512 512;" xml:space="preserve">
<path d="M495.5,119.6l-70.3-6.9l51.6-51.6c7.1-7.1,7.1-18.7,0-25.9c-7.1-7.1-18.7-7.1-25.9,0l-51.6,51.6l-6.9-70.3
	c-1-10.1-10-17.4-20-16.4c-10,1-17.4,9.9-16.4,20l6.4,65.1C271.8,24.6,148,34.3,68,114.2c-5.4,5.4-10.5,11.5-15,18.4l88.6,88.6
	c7.1,7.1,7.1,18.7,0,25.9c-7.1,7.1-18.7,7.1-25.9,0l-80.9-80.9C-14.4,281.1,2.7,481.8,3.5,491.9c0.5,4.4,2.5,8.4,5.4,11.4
	c2.8,2.8,6.9,4.8,11.2,5.3c7,0.5,106.4,8.9,204.9-2.7l-79.5-79.5c-7.2-7.2-7.1-18.7,0-25.9c7.2-7.2,18.6-7.2,25.9,0l98.6,98.6
	c52-9.8,99.4-26.8,127.7-55.1c11-11,20.7-22.8,29-35.4l-87-87c-7.1-7.1-7.2-18.6,0-25.9c7.1-7.1,18.7-7.1,25.9,0l79.6,79.6
	c33-72.5,26.6-158.4-18.5-225.8l65.2,6.4c10,1,19-6.4,20-16.4C512.9,129.6,505.6,120.6,495.5,119.6z"/>
</svg>
