<!-- icon666.com - MILLIONS OF FREE VECTOR ICONS --><svg id="Capa_1" enable-background="new 0 0 512 512" viewBox="0 0 512 512" xmlns="http://www.w3.org/2000/svg"><g><path d="m317.557 287.177c-19.265 8.018-40.102 12.232-61.557 12.232s-42.292-4.214-61.557-12.232c-11.726 16.104-27.056 29.001-44.509 37.814l.326.285c37.279 32.555 58.66 79.61 58.66 129.103v48.62h94.16v-48.62c0-49.492 21.381-96.548 58.66-129.103l.326-.285c-17.453-8.813-32.783-21.71-44.509-37.814z"></path><path d="m417.928 120.188c-.951 0-1.9.038-2.85.066.736 6.218 1.126 12.54 1.126 18.952h-30c0-71.796-58.409-130.205-130.204-130.205s-130.204 58.409-130.204 130.204h-30c0-6.412.39-12.734 1.126-18.952-.95-.028-1.9-.066-2.85-.066-51.872.001-94.072 42.201-94.072 94.073 0 51.871 42.2 94.071 94.072 94.071 28.816 0 55.865-13.298 73.568-35.458-8.486-5.633-16.495-12.111-23.913-19.4l21.026-21.398c24.501 24.076 56.907 37.335 91.247 37.335s66.746-13.259 91.247-37.335l21.026 21.398c-7.418 7.289-15.427 13.767-23.913 19.4 17.703 22.16 44.752 35.458 73.568 35.458 51.872 0 94.072-42.2 94.072-94.071 0-51.872-42.2-94.072-94.072-94.072z"></path></g></svg>