<!-- icon666.com - MILLIONS OF FREE VECTOR ICONS --><svg version="1.1" id="Capa_1" xmlns="http://www.w3.org/2000/svg" xmlns:xlink="http://www.w3.org/1999/xlink" x="0px" y="0px" viewBox="0 0 512.001 512.001" style="enable-background:new 0 0 512.001 512.001;" xml:space="preserve"><g><g><g><path d="M469.908,88.078c-25.924-37.162-120.065-60.039-214.655-60.039c-97.916,0-197.141,22.396-216.355,64.453 C18.975,136.1,0,179.926,0,227.961c0,141.16,114.84,256,256,256s256-114.84,256-256C512,160,470.56,89.011,469.908,88.078z M255.254,60.039c120.734,0,185.867,30.035,185.867,42.316c0,12.281-65.133,42.316-185.867,42.316 c-120.738,0-185.871-30.035-185.871-42.316C69.383,90.074,134.515,60.039,255.254,60.039z M53.352,132.765 c34.738,29.965,120.696,43.906,201.902,43.906c82.009,0,168.906-14.207,202.959-44.789c6.936,14.563,12.268,29.781,15.905,45.449 c-5.674,13.168-20.644,36.668-53.601,29.602c-45.988-9.856-96.426,8.152-126.578,18.91c-8.43,3.008-15.711,5.605-19.621,6.391 c-4.129,0.781-18.547-4.977-29.082-9.176c-26.403-10.528-62.559-24.949-94.929-14.477c-38.993,12.617-75.169,7.864-84.13-11.054 c-7.414-15.649-17.627-24.309-26.047-29.082C43.504,156.211,47.926,144.285,53.352,132.765z M256,451.961 c-123.516,0-224-100.484-224-224c0-11.418,0.934-22.742,2.643-33.914c3.371,3.148,6.873,7.484,9.846,13.758 c14.563,30.75,61.113,40.469,113.207,23.614c24.137-7.809,54.359,4.25,78.648,13.934c15.012,5.984,27.344,10.906,37.477,10.906 c1.801,0,3.535-0.156,5.2-0.492c5.629-1.125,13.289-3.859,22.988-7.32c27.735-9.898,74.176-26.469,113.477-18.047 c29.24,6.266,50.074-3.813,63.959-18.152c0.365,5.215,0.556,10.457,0.556,15.715C480.001,351.476,379.516,451.961,256,451.961z"></path><path d="M255.254,134.356c100.86,0,152-10.766,152-32c0-21.234-51.14-32-152-32s-151.999,10.766-151.999,32 C103.254,123.59,154.395,134.356,255.254,134.356z M255.254,94.356c52.441,0,89.746,3.938,110.828,8 c-21.082,4.062-58.387,8-110.828,8s-89.746-3.938-110.832-8C165.508,98.293,202.812,94.356,255.254,94.356z"></path></g></g></g></svg>