<?xml version="1.0" encoding="utf-8"?>
<!-- Generator: Adobe Illustrator 21.1.0, SVG Export Plug-In . SVG Version: 6.00 Build 0)  -->
<svg version="1.1" id="Capa_1" xmlns="http://www.w3.org/2000/svg" xmlns:xlink="http://www.w3.org/1999/xlink" x="0px" y="0px"
	 viewBox="0 0 512 512" style="enable-background:new 0 0 512 512;" xml:space="preserve">
<g>
	<path d="M427.2,217.4c-49.4-11-100,10.8-126.1,54.2L256,346.9l-45.2-75.3c-26-43.4-76.7-65.1-126.1-54.2
		c-10.9,2.4-15.5,15.6-8.3,24.2c22.5,27.1,31.8,62.4,25.3,97l-0.9,4.8c-8.1,43.3,4.6,88.6,34,121.4c27,30,65.5,47.2,105.9,47.2h30.5
		c40.3,0,78.9-17.2,105.9-47.2c29.4-32.7,42.2-78.1,34-121.4l-0.9-4.8c-6.5-34.6,2.7-70,25.3-97C442.7,233,438.2,219.8,427.2,217.4
		L427.2,217.4z"/>
	<path d="M236.5,256.1l19.5,32.4l19.5-32.4c21.7-36.2,58.6-62.3,102.1-69.5C365.3,141,345,82.1,318.2,43c-39.3-57.3-85-57.4-124.4,0
		C167,82.1,146.7,141,134.4,186.6C177.5,193.8,214.5,219.4,236.5,256.1z M264,215h-16c-8.3,0-15-6.7-15-15c0-8.3,6.7-15,15-15h16
		c8.3,0,15,6.7,15,15C279,208.3,272.3,215,264,215z M304,129c8.3,0,15,6.7,15,15c0,8.3-6.7,15-15,15h-16c-8.3,0-15-6.7-15-15
		c0-8.3,6.7-15,15-15H304z M248,73h16c8.3,0,15,6.7,15,15s-6.7,15-15,15h-16c-8.3,0-15-6.7-15-15S239.7,73,248,73z M208,129h16
		c8.3,0,15,6.7,15,15c0,8.3-6.7,15-15,15h-16c-8.3,0-15-6.7-15-15C193,135.8,199.7,129,208,129z"/>
</g>
</svg>
