<!-- icon666.com - MILLIONS OF FREE VECTOR ICONS --><svg viewBox="0 0 57 68" xmlns="http://www.w3.org/2000/svg"><g id="Page-1" fill="none" fill-rule="evenodd"><g id="things_filled" fill="rgb(0,0,0)" fill-rule="nonzero" transform="translate(-422 -536)"><path id="cucumber,-pickle,-fruit,-food,-watery,-salad" d="m463 538c0-1.104569.895431-2 2-2s2 .895431 2 2v4.300054c6.846721 1.389811 12 7.443072 12 14.699946 0 21.07214-15.30855 39.784908-37.767505 46.390483-7.947644 2.337542-16.285435-2.210344-18.622978-10.157988-2.337542-7.947644 2.210344-16.285435 10.157988-18.622978 9.908955-2.914398 16.232495-10.20009 16.232495-17.609517 0-7.948243 6.181968-14.452609 14-14.967195zm-5 15c1.104569 0 2-.895431 2-2s-.895431-2-2-2-2 .895431-2 2 .895431 2 2 2zm12 4c1.104569 0 2-.895431 2-2s-.895431-2-2-2-2 .895431-2 2 .895431 2 2 2zm-27 22c1.104569 0 2-.895431 2-2s-.895431-2-2-2-2 .895431-2 2 .895431 2 2 2zm4 18c1.104569 0 2-.895431 2-2s-.895431-2-2-2-2 .895431-2 2 .895431 2 2 2zm-13-11c1.104569 0 2-.895431 2-2s-.895431-2-2-2-2 .895431-2 2 .895431 2 2 2zm17 0c1.104569 0 2-.895431 2-2s-.895431-2-2-2-2 .895431-2 2 .895431 2 2 2zm18-16c1.104569 0 2-.895431 2-2s-.895431-2-2-2-2 .895431-2 2 .895431 2 2 2zm-6 11c1.104569 0 2-.895431 2-2s-.895431-2-2-2-2 .895431-2 2 .895431 2 2 2zm-9-8c1.104569 0 2-.895431 2-2s-.895431-2-2-2-2 .895431-2 2 .895431 2 2 2zm7-10c1.104569 0 2-.895431 2-2s-.895431-2-2-2-2 .895431-2 2 .895431 2 2 2zm-27 34c1.104569 0 2-.895431 2-2s-.895431-2-2-2-2 .895431-2 2 .895431 2 2 2z"></path></g></g></svg>