<!-- icon666.com - MILLIONS OF FREE VECTOR ICONS --><svg version="1.1" id="Capa_1" xmlns="http://www.w3.org/2000/svg" xmlns:xlink="http://www.w3.org/1999/xlink" x="0px" y="0px" viewBox="0 0 370.309 370.309" style="enable-background:new 0 0 370.309 370.309;" xml:space="preserve"><g><g><path d="M355.001,100.757c14.95-18.278,19.354-43.469,11.418-65.741c-2.099-5.837-7.782-9.574-14.234-9.318h-0.051l-11.776,0.461 c-7.782,0.358-13.824,6.656-13.773,14.387c0.102,9.267-4.352,17.92-11.878,23.091c-0.205,0.154-0.461,0.154-0.666,0.102 c-31.642-9.114-65.536,2.918-84.224,29.901c-2.56,3.738-2.97,8.55-1.024,12.646c0.205,0.461,0.461,0.922,0.768,1.331 c-34.509,28.211-78.746,43.264-123.494,41.626c-25.139-2.202-49.869,5.376-69.581,21.248 C16.723,186.415,4.025,209.045,0.8,234.236c-3.226,25.139,3.379,50.176,18.534,70.554c15.155,20.326,37.274,33.843,62.31,37.99 c0.051,0,0.154,0,0.205,0c0.051,0,0.102,0,0.154,0c9.779,1.229,19.558,1.843,29.338,1.843c18.33,0,36.608-2.15,54.579-6.502 c26.675-6.4,51.917-17.357,75.162-32.563c41.318-27.034,73.626-66.304,92.416-111.872c0.973,0.461,2.048,0.819,3.226,1.024 c0.768,0.154,1.536,0.205,2.304,0.205c3.84,0,7.475-1.741,9.933-4.864c19.917-25.549,22.272-60.262,5.99-88.371 C354.796,101.372,354.796,101.013,355.001,100.757z M84.307,325.525c-42.65-7.168-71.731-46.234-66.253-89.088 c5.478-43.008,43.571-73.677,86.682-69.837c0.102,0,0.154,0,0.256,0c0.051,0,0.154,0,0.205,0c2.56,0.102,5.171,0.154,7.731,0.154 c24.371,0,48.333-4.403,71.219-13.056c24.013-9.114,45.773-22.477,64.614-39.782l10.342,0.614l-1.229,15.667v0.051v0.051 c-0.307,4.403,1.792,8.704,5.376,11.213c2.15,1.485,4.659,2.253,7.168,2.253c1.792,0,3.584-0.358,5.222-1.126l12.595-5.837 l-2.765,10.496v0.051v0.051c-1.178,4.659,0.461,9.677,4.147,12.749c2.304,1.894,5.171,2.918,8.09,2.918 c1.741,0,3.533-0.358,5.171-1.126l14.746-6.707l5.069,17.05C288.902,274.274,189.062,338.581,84.307,325.525z M341.587,89.8 c-4.762,5.837-5.427,14.131-1.69,20.634c11.008,18.995,11.059,41.83,0.768,60.57l-7.834-26.266 c-1.126-3.738-3.584-6.707-6.81-8.141c-3.174-1.434-6.656-1.331-10.342,0.358l-10.65,4.813l2.816-10.547v-0.051v-0.051 c1.178-4.659-0.461-9.677-4.147-12.749c-3.686-3.072-8.909-3.789-13.312-1.792l-14.438,6.656l0.973-12.288v-0.051v-0.051 c0.205-3.328-0.87-6.605-3.072-9.114s-5.274-4.045-8.653-4.301h-0.051h-0.051l-15.309-0.87 c15.104-15.821,37.888-22.272,59.443-16.077c1.69,0.461,3.379,0.717,5.069,0.717c3.635,0,7.219-1.075,10.291-3.174 c11.52-7.885,18.586-20.634,19.405-34.509l6.81-0.256C355.616,59.234,352.185,76.847,341.587,89.8z"></path></g></g></svg>