<!-- icon666.com - MILLIONS OF FREE VECTOR ICONS --><svg id="Layer_1" enable-background="new 0 0 511.986 511.986" viewBox="0 0 511.986 511.986" xmlns="http://www.w3.org/2000/svg"><g><path d="m503.988 151.056c-8.196-20.691-22.227-38.395-40.228-51.081 17.84-30.909 7.408-70.706-23.369-88.858-7.133-4.206-16.331-1.836-20.54 5.3-4.209 7.135-1.836 16.331 5.3 20.54 4.276 2.522 7.821 5.821 10.571 9.61 6.933 9.549 8.787 22.224 4.393 33.544-.665 1.713-1.469 3.397-2.424 5.032l-.539.923c-21.182-7.717-44.282-9.007-66.372-3.516-26.742 6.647-50.146 22.76-65.898 45.369l-12.18 17.48c-2.948 4.231-3.516 9.681-1.503 14.43 2.013 4.748 6.324 8.129 11.415 8.953l14.299 2.313c-37.484 37.502-101.839 83.271-192.62 83.271-68.536 0-124.293 55.758-124.293 124.293s55.757 124.292 124.292 124.292c53.662 0 103.945-9.729 149.45-28.918 40.746-17.181 76.97-41.565 107.665-72.475 27.323-27.514 49.775-60.086 64.929-94.194 8.906-20.047 15.203-40.331 18.708-60.005l7.988 8.815c2.874 3.171 6.926 4.928 11.114 4.928.978 0 1.964-.096 2.942-.291 5.175-1.035 9.425-4.713 11.192-9.686l7.135-20.075c9.229-25.967 8.722-54.375-1.427-79.994zm-473.988 227.603c0-51.993 42.299-94.293 94.292-94.293 114.185 0 190.342-64.55 228.355-107.49l6.68 1.081 23.24 31.066c2.951 3.945 7.634 6.167 12.577 6.004l39.256-1.482 3.786 4.177c-1.952 53.992-31.482 115.789-78.066 162.698-41.92 42.212-116.861 92.531-235.828 92.531-51.993 0-94.292-42.299-94.292-94.292zm448.349-161.294-26.413-29.146c-2.85-3.144-6.89-4.927-11.114-4.927-.188 0-.378.004-.567.011l-38.378 1.449-22.158-29.619c-2.329-3.113-5.776-5.201-9.615-5.822l-39.105-6.326c24.264-32.643 69.157-43.228 105.532-24.52 36.001 18.514 53.513 60.497 41.818 98.9z"></path></g></svg>