<svg id="Capa_1" viewBox="0 0 500 500" xmlns="http://www.w3.org/2000/svg"><path d="m276.235 0c-123.921 0-207.176 111.007-207.176 276.235s83.255 276.235 207.176 276.235 207.176-111.006 207.176-276.235-83.254-276.235-207.176-276.235zm0 517.941c-119.268 0-172.647-121.392-172.647-241.706s53.379-241.706 172.647-241.706 172.647 121.392 172.647 241.706-53.379 241.706-172.647 241.706z"></path><path d="m276.235 69.059c-38.727 0-69.059 22.744-69.059 51.794s30.331 51.794 69.059 51.794 69.059-22.744 69.059-51.794-30.331-51.794-69.059-51.794zm0 69.059c-21.075 0-34.529-10.217-34.529-17.265s13.454-17.265 34.529-17.265 34.529 10.217 34.529 17.265c.001 7.047-13.454 17.265-34.529 17.265z"></path></svg>