<!-- icon666.com - MILLIONS OF FREE VECTOR ICONS --><svg version="1.1" id="Capa_1" xmlns="http://www.w3.org/2000/svg" xmlns:xlink="http://www.w3.org/1999/xlink" x="0px" y="0px" viewBox="0 0 409.717 409.717" style="enable-background:new 0 0 409.717 409.717;" xml:space="preserve"><g><g><path d="M277.295,75.151c-13.353-4.26-25.18-10.639-34.924-18.57l-0.297-0.276c-0.082-0.077-0.189-0.102-0.276-0.174 c-12.626-10.44-21.647-23.526-25.743-38.031l-2.949-10.44c-1.326-4.69-5.903-7.951-11.1-7.639 c-5.268,0.113-9.549,3.343-10.655,8.038l-2.063,8.776c-6.257,26.573-28.959,48.87-60.739,59.628 C44.32,105-6.998,175.646,0.846,252.251c8.637,84.342,90.737,151.89,190.971,157.128c4.357,0.225,8.704,0.338,13.025,0.338 c58.67,0,113.894-20.792,153.119-58.02c33.341-31.636,51.697-72.412,51.697-114.821 C409.658,165.401,356.466,100.413,277.295,75.151z M11.03,251.212C3.683,179.46,52.23,113.131,131.831,86.164 c1.562-0.527,3.077-1.116,4.598-1.695c-36.951,41.472-71.808,98.278-67.563,162.335c3.507,52.879,33.516,102.554,89.114,147.901 C78.931,378.229,18.152,320.777,11.03,251.212z M178.812,397.997c-62.561-46.525-96.133-97.613-99.727-151.869 c-4.787-72.269,43.653-135.572,85.407-176.138c-24.934,65.516-57.037,217.047,22.932,328.806 C184.536,398.581,181.664,398.315,178.812,397.997z M205.451,399.451c-1.741,0.005-3.487-0.036-5.233-0.072 c-0.138-0.271-0.205-0.568-0.399-0.819C98.566,265.589,168.618,69.923,187.081,46.345c0.036-0.046,0.041-0.102,0.077-0.148 c5.699-8.32,9.836-17.408,12.099-27.013l2.002-8.663c0.189-0.184,0.655-0.276,1.096-0.276c0.389,0,0.753,0.072,0.896,0.195 l2.949,10.44c2.55,9.021,6.753,17.546,12.355,25.339c0.031,0.041,0.036,0.092,0.067,0.128 c18.463,23.578,88.515,219.244-12.739,352.215C205.672,398.832,205.595,399.154,205.451,399.451z M218.072,399.067 c80.512-112.195,47.846-264.602,22.856-329.774c27.443,26.117,90.747,90.788,86.697,170.696 c-2.806,55.357-37.263,108.723-102.405,158.607C222.849,398.801,220.463,398.934,218.072,399.067z M350.916,344.278 c-28.268,26.829-65.367,44.652-106.045,51.733c58.931-48.768,90.214-101.018,92.979-155.505 c3.415-67.323-37.663-123.643-68.844-157.399c1.705,0.625,3.425,1.244,5.176,1.802c74.906,23.9,125.235,84.966,125.235,151.967 C399.418,276.448,382.194,314.592,350.916,344.278z"></path></g></g></svg>