<!-- icon666.com - MILLIONS OF FREE VECTOR ICONS --><svg id="Layer_1" enable-background="new 0 0 512.105 512.105" viewBox="0 0 512.105 512.105" xmlns="http://www.w3.org/2000/svg"><path d="m508.842 91.772c-8.736-15.709-34.913-23.992-82.906-5.617 4.809-12.543 7.988-24.115 9.507-34.652 4.487-31.123-6.935-43.246-14.143-47.701-14.15-8.747-32.568-1.99-43.793 16.07-30.88 49.683-58.303 80.46-107.486 129.718-.223.069-.445.139-.668.208-20.754 6.475-42.211 13.173-66.807 8.984-189.699-32.662-268.602 159.596-137.963 288.69 41.294 40.715 88.778 64.06 142.593 64.633 108.477-.756 165.796-99.086 146.098-202.598-4.187-24.591 2.51-46.052 8.984-66.807.069-.222.138-.444.208-.666 49.258-49.183 80.034-76.606 129.718-107.487 17.415-10.824 24.421-28.813 16.658-42.775zm-474.568 152.984c28.108-57.317 98.959-78.857 164.917-66.258 29.322 4.99 54.185-2.765 76.12-9.608 16.981-5.298 29.627-8.902 40.561-7.879-7.684 4.137-16.112 9.74-24.929 15.603-15.739 10.465-33.578 22.326-49.259 26.993-78.685 22.31-179.761 114.617-190.316 196.762-34.301-50.599-41.427-108.529-17.094-155.613zm45.413 187.613c-11.169-11.168-9.544-29.182-6.215-42.327 14.936-58.969 92.486-143.03 173.918-167.266 18.554-5.522 37.719-18.265 54.628-29.507 9.117-6.062 17.729-11.789 24.892-15.467 6.959-3.521 9.655-3.888 11.225-3.879.057.964-.188 4.04-3.88 11.225-3.679 7.162-9.404 15.773-15.467 24.891-11.242 16.91-23.985 36.075-29.508 54.628-24.236 81.433-108.299 158.983-167.268 173.918-13.144 3.328-31.158 4.952-42.325-6.216zm253.87-119.506c12.803 75.208-11.967 136.859-66.258 164.917-18.717 9.674-39.144 14.375-60.148 14.375-31.831-.001-64.979-10.803-95.465-31.468 4.867-.473 9.952-1.376 15.236-2.714 73.433-17.946 161.885-113.621 181.527-187.602 4.667-15.681 16.527-33.521 26.993-49.26 5.862-8.816 11.464-17.243 15.601-24.928 1.023 10.933-2.581 23.579-7.879 40.56-6.841 21.936-14.598 46.797-9.607 76.12zm148.069-195.303c-42.86 26.639-72.921 51.578-110.718 88.104 1.228-15.995-2.462-31.84-17.57-46.948-15.107-15.107-30.952-18.798-46.947-17.57 36.526-37.798 61.465-67.859 88.103-110.719 5.533-8.902 12.627-11.877 16.29-9.616 3.76 2.324 7.29 11.009 4.863 27.835-2.229 15.456-10.322 42.723-36.225 84.854-2.893 4.705-1.424 10.863 3.281 13.756 4.704 2.892 10.864 1.424 13.756-3.282 6.584-10.708 12.368-20.974 17.343-30.774 50.036-24.062 73.843-18.396 77.558-11.711 2.037 3.662-1.048 10.673-9.734 16.071z"></path></svg>