<!-- icon666.com - MILLIONS OF FREE VECTOR ICONS --><svg viewBox="0 0 32 32" xmlns="http://www.w3.org/2000/svg"><g id="Layer_2" data-name="Layer 2"><path d="m26.718 5.4a8.3 8.3 0 0 0 -5.689-3.372 6.625 6.625 0 0 0 -4.591 1.193 5.465 5.465 0 0 0 -2.032 3.585 5.164 5.164 0 0 1 -1.106 2.525 3.972 3.972 0 0 1 -2.771 1.235 7.853 7.853 0 0 0 -4.085 1.634 9.911 9.911 0 0 0 -3.344 8.884c.723 4.971 5.444 8.192 9.733 8.807a10.67 10.67 0 0 0 1.5.106c3.648 0 7.275-1.884 10.356-5.415 4.831-5.543 5.761-14.326 2.029-19.182zm-16.718 12.6a1 1 0 1 1 1-1 1 1 0 0 1 -1 1zm4 6a1 1 0 1 1 1-1 1 1 0 0 1 -1 1zm6-6a1 1 0 1 1 1-1 1 1 0 0 1 -1 1zm1-7a1 1 0 1 1 1-1 1 1 0 0 1 -1 1z"></path></g></svg>