<!-- icon666.com - MILLIONS OF FREE VECTOR ICONS --><svg version="1.1" id="Capa_1" xmlns="http://www.w3.org/2000/svg" xmlns:xlink="http://www.w3.org/1999/xlink" x="0px" y="0px" viewBox="0 0 512 512" style="enable-background:new 0 0 512 512;" xml:space="preserve"><g><g><path d="M241.853,128.221c4.66-0.469,9.376-0.721,14.147-0.721c5.439,0,10.81,0.314,16.103,0.924 C278.88,85.461,316.162,52.5,361,52.5v-30C299.664,22.5,248.935,68.76,241.853,128.221z"></path></g></g><g><g><path d="M387,157.5c-13.216,0-25.766,2.334-37.461,6.719c7.214,6.61,13.944,14.061,20.111,22.32 C396.314,222.252,411,270.892,411,323.5c0,52.608-14.686,101.248-41.35,136.961c-6.167,8.259-12.897,15.71-20.111,22.32 c11.695,4.385,24.245,6.719,37.461,6.719c72.43,0,125-69.813,125-166S459.43,157.5,387,157.5z"></path></g></g><g><g><path d="M142.35,460.461C115.685,424.748,101,376.108,101,323.5c0-52.608,14.685-101.248,41.35-136.961 c6.167-8.259,12.897-15.71,20.111-22.32c-11.695-4.385-24.245-6.719-37.461-6.719c-72.43,0-125,69.813-125,166s52.57,166,125,166 c13.216,0,25.766-2.334,37.461-6.719C155.246,476.171,148.516,468.72,142.35,460.461z"></path></g></g><g><g><path d="M256,157.5c-72.43,0-125,69.813-125,166s52.57,166,125,166s125-69.813,125-166S328.43,157.5,256,157.5z"></path></g></g></svg>