<!-- icon666.com - MILLIONS OF FREE VECTOR ICONS --><svg version="1.1" id="Capa_1" xmlns="http://www.w3.org/2000/svg" xmlns:xlink="http://www.w3.org/1999/xlink" x="0px" y="0px" viewBox="0 0 409.605 409.605" style="enable-background:new 0 0 409.605 409.605;" xml:space="preserve"><g><g><path d="M221.867,103.9V85.335c0-23.117,9.001-44.851,25.37-61.199L223.101,0c-21.852,21.832-35.364,51.999-35.364,85.335V103.9 c-48.399,8.151-85.335,50.15-85.335,100.864v68.27c0,75.412,45.834,136.53,102.4,136.53c56.535,0,102.4-61.117,102.4-136.53 v-68.27C307.203,154.051,270.287,112.036,221.867,103.9z"></path></g></g><g><g><path d="M68.268,273.034v-68.27c0-40.617,17.935-77.03,46.172-102.067C50.839,106.117,0.003,173.302,0.003,255.964 c0,84.818,53.499,153.6,119.465,153.6h3.768C89.935,378.414,68.268,328.883,68.268,273.034z"></path></g></g><g><g><path d="M295.186,102.717c28.232,25.037,46.152,61.45,46.152,102.052v68.27c0,55.864-21.699,105.416-54.999,136.566h3.799 C356.104,409.6,409.603,340.833,409.603,256C409.603,173.384,358.802,106.148,295.186,102.717z"></path></g></g></svg>