<!-- icon666.com - MILLIONS OF FREE VECTOR ICONS --><svg id="Capa_1" enable-background="new 0 0 512 512" viewBox="0 0 512 512" xmlns="http://www.w3.org/2000/svg"><g><path d="m256 105.408c12.33 0 24.924-2.334 40.868-5.29 18.092-3.353 39.834-7.374 66.958-8.698l9.113-20.031c2.462-5.411 1.496-11.765-2.462-16.199-3.959-4.435-10.164-6.116-15.816-4.281l-58.186 18.861-28.094-41.069c-2.796-4.087-7.429-6.531-12.381-6.531s-9.585 2.444-12.381 6.531l-28.094 41.069-58.187-18.861c-5.659-1.836-11.869-.151-15.826 4.292s-4.914 10.805-2.439 16.216l9.099 19.895c27.152 1.334 48.913 5.39 67.019 8.771 15.929 2.975 28.51 5.325 40.809 5.325z"></path><path d="m382.146 120.968c-33.147 0-57.938 4.594-79.809 8.648-16.769 3.108-31.25 5.792-46.337 5.792-15.076 0-29.554-2.704-46.316-5.835-21.876-4.086-46.67-8.717-79.827-8.717-42.689 0-77.418 14.999-100.432 43.375-18.975 23.397-29.425 55.558-29.425 90.558 0 45.627 7.658 86.109 22.762 120.321 24.422 55.319 67.189 92.768 127.115 111.304 19.019 5.883 41.78 3.011 65.88-.03 13.522-1.706 27.506-3.47 40.243-3.47s26.721 1.764 40.243 3.47c13.876 1.751 27.309 3.446 39.839 3.446 9.23 0 17.973-.92 26.04-3.416 59.926-18.536 102.694-55.984 127.116-111.304 15.104-34.212 22.762-74.694 22.762-120.321 0-34.819-10.442-66.893-29.403-90.312-23.046-28.463-57.782-43.509-100.451-43.509z"></path></g></svg>