<?xml version="1.0" encoding="utf-8"?>
<!-- Generator: Adobe Illustrator 21.1.0, SVG Export Plug-In . SVG Version: 6.00 Build 0)  -->
<svg version="1.1" id="Layer_1" xmlns="http://www.w3.org/2000/svg" xmlns:xlink="http://www.w3.org/1999/xlink" x="0px" y="0px"
	 viewBox="0 0 512 512" style="enable-background:new 0 0 512 512;" xml:space="preserve">
<path d="M485.1,173.9c-10.3-52.1-52-92.1-104.4-100.3c-36.5-4.6-73.5,2.3-105.9,19.6V79.3c0.2-5.1,1.3-23.6,15.8-38.2
	c6.9-6.9,14.3-10.5,19.2-12.3c-5.4-9.6-10.7-19.1-16.1-28.7c-7.6,2.2-18.5,6.5-28.7,15.5c-26.5,23.2-26.5,57.7-26.4,63.8v14.1
	C206.2,76,169.2,69.2,132.7,73.7C79.6,80.4,44,122.7,28.3,174c-12.1,39.2-2.1,179.8,37.6,246.4l21.2,35.3
	c21.1,34.9,58.9,56.3,99.7,56.2c19.9-0.1,39-8.1,53.1-22.2l16.3-16.3l16.3,16.3c14.5,14.5,34.2,22.5,54.7,22.2
	c40.8,0,78.5-21.4,99.5-56.4l21.2-35.3C487.7,354.1,493.7,207.4,485.1,173.9z"/>
</svg>
