<?xml version="1.0" encoding="utf-8"?>
<!-- Generator: Adobe Illustrator 21.1.0, SVG Export Plug-In . SVG Version: 6.00 Build 0)  -->
<svg version="1.1" id="Layer_1" xmlns="http://www.w3.org/2000/svg" xmlns:xlink="http://www.w3.org/1999/xlink" x="0px" y="0px"
	 viewBox="0 0 512 512" xml:space="preserve">
<path d="M256,512c-108.4,0-195.8-87.3-195.8-195.8C60.2,164.1,152.8,0,256,0s195.8,164.1,195.8,316.2C451.8,424.7,364.4,512,256,512
	z M256,414.1c54.2,0,97.9-43.7,97.9-97.9s-43.7-97.9-97.9-97.9s-97.9,43.7-97.9,97.9S201.8,414.1,256,414.1z M256,384
	c-37.6,0-67.8-30.1-67.8-67.8s30.1-67.8,67.8-67.8s67.8,30.1,67.8,67.8S293.6,384,256,384z"/>
</svg>
