<!-- icon666.com - MILLIONS OF FREE VECTOR ICONS --><svg viewBox="-59 0 512 512" xmlns="http://www.w3.org/2000/svg"><path d="m146.113281 148.652344c-13.429687 14.171875-20.246093 32.710937-19.199219 52.207031l13.84375 257.636719c1.613282 30 26.410157 53.503906 56.457032 53.503906s54.84375-23.503906 56.457031-53.503906l13.84375-257.636719c1.050781-19.496094-5.769531-38.035156-19.199219-52.207031-13.429687-14.171875-31.578125-21.972656-51.101562-21.972656-19.523438 0-37.671875 7.800781-51.101563 21.972656zm0 0"></path><path d="m393.4375 229.027344c3.859375-25.679688-3.644531-51.699219-20.589844-71.378906-16.941406-19.683594-41.554687-30.96875-67.527344-30.96875-10.835937 0-21.433593 1.96875-31.335937 5.6875 16.566406 19.582031 24.878906 44.253906 23.488281 70.101562l-13.84375 257.636719c-.78125 14.53125-5.125 28.066406-12.144531 39.78125 9.191406 7.613281 20.988281 12.113281 33.835937 12.113281 26.417969 0 48.4375-18.960938 52.367188-45.085938zm0 0"></path><path d="m.992188 229.027344 35.753906 237.890625c3.925781 26.121093 25.949218 45.082031 52.363281 45.082031 12.851563 0 24.648437-4.5 33.839844-12.113281-7.023438-11.71875-11.367188-25.246094-12.148438-39.78125l-13.84375-257.636719c-1.390625-25.847656 6.921875-50.511719 23.488281-70.09375-9.90625-3.71875-20.5-5.695312-31.335937-5.695312-25.972656 0-50.582031 11.289062-67.527344 30.96875-16.945312 19.683593-24.449219 45.699218-20.589843 71.378906zm0 0"></path><path d="m197.214844 96.679688c11.238281 0 22.152344 1.8125 32.4375 5.304687v-12.988281c0-14.832032 12.0625-25.429688 26.894531-25.429688h12.714844v-63.566406h-12.714844c-49.882813 0-90.460937 39.113281-90.460937 88.996094v12.5625c9.902343-3.210938 20.367187-4.878906 31.128906-4.878906zm0 0"></path></svg>