<!-- icon666.com - MILLIONS OF FREE VECTOR ICONS --><svg id="Layer_1" enable-background="new 0 0 510 510" viewBox="0 0 510 510" xmlns="http://www.w3.org/2000/svg"><g><path d="m128.26 150.271c-20.863 25.016-34.469 56.277-37.57 90.527h128.098z"></path><path d="m90.689 270.798c3.102 34.25 16.707 65.512 37.57 90.527l90.527-90.527z"></path><path d="m270 91.488v128.098l90.527-90.527c-25.015-20.864-56.277-34.47-90.527-37.571z"></path><path d="m240 420.109v-128.098l-90.527 90.527c25.015 20.864 56.277 34.469 90.527 37.571z"></path><path d="m240 219.585v-128.097c-34.25 3.102-65.512 16.707-90.527 37.57z"></path><path d="m381.74 361.326c20.863-25.016 34.469-56.277 37.57-90.527h-128.097z"></path><path d="m255 .798c-140.931 0-255 114.05-255 255 12.343 337.907 497.698 337.837 510-.003 0-140.927-114.049-254.997-255-254.997zm0 450c-107.523 0-195-87.477-195-195 9.803-258.338 380.236-258.268 390 .003 0 107.521-87.477 194.997-195 194.997z"></path><path d="m270 420.109c34.25-3.102 65.512-16.707 90.527-37.57l-90.527-90.528z"></path><path d="m419.31 240.798c-3.101-34.25-16.707-65.512-37.57-90.527l-90.527 90.527z"></path></g></svg>