<!-- icon666.com - MILLIONS OF FREE VECTOR ICONS --><svg version="1.1" id="Layer_1" xmlns="http://www.w3.org/2000/svg" xmlns:xlink="http://www.w3.org/1999/xlink" x="0px" y="0px" viewBox="0 0 512 512" style="enable-background:new 0 0 512 512;" xml:space="preserve"><g><g><path d="M437.019,74.981c-48.351-48.352-112.638-74.98-181.018-74.98s-132.669,26.628-181.02,74.98 C26.628,123.332,0,187.62,0,256.001c0,68.379,26.628,132.667,74.981,181.018c48.352,48.351,112.64,74.98,181.02,74.98 c68.379,0,132.668-26.628,181.018-74.98C485.372,388.666,512,324.38,512,256.001C512,187.62,485.372,123.332,437.019,74.981z M388.18,271.674h-45.838c-2.273,12.552-7.214,24.182-14.228,34.278l32.435,32.434c6.12,6.121,6.12,16.044,0,22.166 c-3.062,3.06-7.072,4.589-11.084,4.589c-4.01,0-8.023-1.53-11.081-4.589l-32.437-32.436c-10.094,7.012-21.72,11.952-34.272,14.225 v45.837c0,8.657-7.016,15.673-15.673,15.673c-8.655,0-15.673-7.016-15.673-15.673v-45.837 c-12.551-2.274-24.18-7.214-34.275-14.226l-32.436,32.437c-3.061,3.061-7.072,4.589-11.082,4.589 c-4.011,0-8.022-1.53-11.083-4.589c-6.12-6.121-6.121-16.044,0-22.165l32.435-32.437c-7.014-10.096-11.955-21.724-14.228-34.276 H123.82c-8.656,0-15.673-7.019-15.673-15.673c0-8.657,7.018-15.673,15.673-15.673h45.838c2.273-12.552,7.213-24.181,14.226-34.277 l-32.433-32.429c-6.12-6.12-6.121-16.044,0-22.167c6.12-6.12,16.044-6.121,22.165-0.001l32.433,32.43 c10.096-7.014,21.726-11.955,34.278-14.228v-45.834c0-8.655,7.019-15.673,15.673-15.673c8.657,0,15.673,7.019,15.673,15.673 v45.834c12.551,2.274,24.18,7.214,34.274,14.227l32.435-32.429c6.121-6.12,16.044-6.12,22.165,0.002 c6.12,6.12,6.12,16.044-0.001,22.165l-32.433,32.428c7.014,10.096,11.955,21.724,14.228,34.278h45.836 c8.656,0,15.674,7.016,15.674,15.673C403.853,264.656,396.836,271.674,388.18,271.674z"></path></g></g><g><g><path d="M256.001,199.574c-31.113,0-56.427,25.313-56.427,56.427c0,31.111,25.314,56.422,56.427,56.422 c31.112,0,56.424-25.312,56.424-56.422C312.426,224.887,287.113,199.574,256.001,199.574z"></path></g></g></svg>