<svg viewBox="0 0 512 512" xmlns="http://www.w3.org/2000/svg">
<path d="M256.001 99.31C301.705 99.31 338.755 77.0787 338.755 49.655C338.755 22.2313 301.705 0 256.001 0C210.297 0 173.247 22.2313 173.247 49.655C173.247 77.0787 210.297 99.31 256.001 99.31Z" fill="black"/>
<path d="M414.169 62.825C397.599 42.941 378.833 26.594 358.518 14.06C365.771 24.911 369.664 37.046 369.664 49.655C369.664 73.846 355.36 96.304 330.42 111.268C310.055 123.486 283.627 130.216 256.002 130.216C228.377 130.216 201.946 123.487 181.583 111.268C156.642 96.305 142.338 73.848 142.338 49.655C142.338 37.047 146.231 24.912 153.483 14.062C133.169 26.594 114.403 42.941 97.8341 62.825C56.4461 112.489 33.6541 178.351 33.6541 248.274C33.6541 318.197 56.4471 384.059 97.8341 433.723C139.9 484.201 196.071 512 256.002 512C315.933 512 372.103 484.201 414.169 433.723C455.555 384.059 478.348 318.197 478.348 248.274C478.348 178.351 455.555 112.489 414.169 62.825Z" fill="black"/>
</svg>
