<!-- icon666.com - MILLIONS OF FREE VECTOR ICONS --><svg fill="none" viewBox="0 0 60 60" xmlns="http://www.w3.org/2000/svg"><g fill="rgb(0,0,0)"><path d="m30.25 28.83-8.939-8.94c2.539-1.84 5.509-2.89 8.689-2.89 3.3 0 6.38 1.13 8.98 3.1z"></path><path d="m28.8301 30.2499-8.33 8.33-6.82-6.82c1.03-4.279 3.19-7.979 6.061-10.6z"></path><path d="m19.08 39.9999-4.92 4.93c-.75-2.3-1.16-4.81-1.16-7.43 0-1.14.08-2.26.23-3.35z"></path><path d="m39.75 38.3299-8.08-8.08 8.85-8.85c2.75 2.609 4.801 6.21 5.801 10.359z"></path><path d="m21.92 40 8.3304-8.3303 8.08 8.08-8.3303 8.3303z"></path><path d="m28.5801 49.4999-6.28 6.28c-3.149-1.931-5.729-5.021-7.37-8.79l5.57-5.57z"></path><path d="m30 50.9199 5.84 5.84c-1.82.801-3.79 1.24-5.84 1.24s-4.02-.439-5.84-1.24z"></path><path d="m45.22 46.6399c-1.63 3.931-4.27 7.15-7.52 9.141l-6.28-6.28 8.33-8.33z"></path><path d="m47 37.4999c0 2.48-.359 4.85-1.03 7.05l-4.8-4.8 5.6-5.6c.15 1.09.23 2.21.23 3.35z"></path><path d="m48 16s-2.209-1.975-7.479-2c-1.521-.008-3.101.47-4.521 2-1.813-.646-4.22-1-6-1-2.3 0-5.209.25-7 1-1.49-.771-2.99-1-5-1-5 0-8 1-8 1s1.063-7 9-7c2.811 0 3.88.89 4 1-.074-1.99-3.709-7-5-8 4 0 7 2 9 5 0 0 .563-3.156 3-5 0 0 3 2.5 3 5 0 0 1.625-3.906 8-4 0 0-3 2.219-4 6.219 0 0 1.297-.219 3-.219 3.359 0 8 1.813 8 7z"></path></g></svg>