<!-- icon666.com - MILLIONS OF FREE VECTOR ICONS --><svg version="1.1" id="Layer_1" xmlns="http://www.w3.org/2000/svg" xmlns:xlink="http://www.w3.org/1999/xlink" x="0px" y="0px" viewBox="0 0 512 512" style="enable-background:new 0 0 512 512;" xml:space="preserve"><g><g><path d="M481.596,30.365c-19.842-19.841-48.991-30.328-84.298-30.328c-39.717,0-86.386,12.751-134.957,36.877 c-47.933,23.808-93.371,56.495-131.404,94.527C78.779,183.601,46.8,240.102,38.456,294.838 c-7.223,47.395,3.92,91.205,31.445,125.061l22.289-22.29l81.633-81.632v-69.316c0-8.656,7.016-15.671,15.671-15.671 s15.671,7.016,15.671,15.671v37.973l57.095-57.095v-69.317c0-8.655,7.018-15.671,15.671-15.671 c8.656,0,15.671,7.017,15.671,15.671v37.974l64.756-64.755c6.119-6.12,16.042-6.12,22.162,0c6.12,6.119,6.12,16.042,0,22.161 l-64.751,64.752h37.97c8.655,0,15.671,7.018,15.671,15.671c0,8.656-7.016,15.671-15.671,15.671h-69.313l-57.1,57.102h37.974 c8.656,0,15.671,7.016,15.671,15.671c0,8.655-7.015,15.671-15.671,15.671h-69.317l-81.617,81.615l-22.319,22.32 c27.032,22.023,60.312,33.584,97.161,33.584c62.342,0,130.283-33.612,191.312-94.64c53.102-53.1,95.801-120.951,117.15-186.152 C521.281,122.764,515.572,64.342,481.596,30.365z"></path></g></g><g><g><path d="M80.402,431.558c-3.734-3.736-7.227-7.632-10.501-11.659L4.59,485.21c-6.119,6.119-6.12,16.041,0,22.161 c3.061,3.061,7.071,4.592,11.081,4.592c4.011,0,8.022-1.531,11.081-4.592l65.297-65.294 C88.024,438.798,84.138,435.295,80.402,431.558z"></path></g></g></svg>