<?xml version="1.0" encoding="utf-8"?>
<!-- Generator: Adobe Illustrator 21.1.0, SVG Export Plug-In . SVG Version: 6.00 Build 0)  -->
<svg version="1.1" id="Layer_1" xmlns="http://www.w3.org/2000/svg" xmlns:xlink="http://www.w3.org/1999/xlink" x="0px" y="0px"
	 viewBox="0 0 512 512" style="enable-background:new 0 0 512 512;" xml:space="preserve">
<path d="M12.6,441.9C12.6,441.9,12.6,441.9,12.6,441.9c36.4,74,128.7,91.2,188.9,42.2c98.8-80.3,195.8-199.5,253.3-311.2
	c14.5-28.1,6.5-62.1-19.1-80.8c-27-19.8-65-15.2-86.5,10.3c-64.2,76.1-174.2,135.3-267.4,169C12.5,296.6-19.7,376.1,12.6,441.9z"/>
<path d="M489.7,115.6c8-21.8,13.5-44.8,20.5-66.2c6-18.7-3-38.5-21.1-46.2c-18.4-7.8-39.6,0-48.4,17.8c-5.2,10.5-13,20.2-22.5,29.2
	C452.2,57.5,479.5,82.7,489.7,115.6z"/>
</svg>
