<!-- icon666.com - MILLIONS OF FREE VECTOR ICONS --><svg id="Capa_1" enable-background="new 0 0 512.496 512.496" viewBox="0 0 512.496 512.496" xmlns="http://www.w3.org/2000/svg"><g id="XMLID_262_"><path id="XMLID_266_" d="m445.056 24.272-60.936 32.936 31.779 45.042 49.211-26.155z"></path><path id="XMLID_280_" d="m159.569 383.236c47.49 3.8 97.85-7.18 141.8-30.94 48.67-26.31 87.21-65.9 108.52-111.49 16.19-34.63 20.35-68.86 12.19-96.77.001-.004 0-.009.001-.014-13.128 39.13-52.404 117.14-164.757 168.967-82.386 38.007-153.217 38.359-192.196 34.105.016.002.027.01.043.011 21.509 19.961 55.269 32.991 94.399 36.131z"></path><path id="XMLID_282_" d="m486.908 121.934-9.844-18.219-31.711 16.854c16.747 37.658 13.878 85.541-8.285 132.948-24.02 51.37-67.15 95.82-121.43 125.17-42.6 23.03-90.72 35.28-137.52 35.28-7.02 0-14.01-.27-20.95-.83-51.33-4.12-95.62-23.59-121.5-53.43-.33-.38-11.607-13.517-15.686-18.206-2.061.54-4.083 1.33-6.023 2.387-12.949 7.058-17.747 23.256-10.731 36.226l1.369 2.537c62.327 115.302 235.976 133.081 356.192 68.334 133.294-71.794 188.446-213.749 126.119-329.051z"></path></g></svg>