<!-- icon666.com - MILLIONS OF FREE VECTOR ICONS --><svg id="Capa_1" enable-background="new 0 0 512 512" viewBox="0 0 512 512" xmlns="http://www.w3.org/2000/svg"><g><path d="m199.328 443.176c-.7 3.586-1.077 7.287-1.077 11.075 0 31.843 25.906 57.749 57.749 57.749s57.748-25.906 57.748-57.749c0-3.853-.387-7.616-1.11-11.26-23.382-4.62-43.453-18.558-56.173-37.77-12.895 19.475-33.343 33.531-57.137 37.955z"></path><path d="m256.465 113.912c4.12-6.223 9.01-11.894 14.535-16.873v-34.373c0-18.012 14.654-32.666 32.666-32.666 8.284 0 15-6.716 15-15s-6.716-15-15-15c-34.554 0-62.666 28.112-62.666 62.666v33.549c5.907 5.174 11.115 11.128 15.465 17.697z"></path><path d="m271.93 356.909c0 31.843 25.905 57.748 57.748 57.748s57.749-25.905 57.749-57.748c0-3.372-.307-6.671-.864-9.886-2.357.191-4.739.292-7.145.292-24.037 0-45.845-9.718-61.709-25.428-12.017 11.9-27.445 20.358-44.669 23.762-.723 3.644-1.11 7.407-1.11 11.26z"></path><path d="m132.581 347.315c-2.094 0-4.169-.079-6.226-.224-.549 3.193-.852 6.47-.852 9.817 0 31.843 25.905 57.748 57.748 57.748s57.749-25.904 57.749-57.747c0-3.788-.377-7.489-1.077-11.075-17.612-3.275-33.392-11.825-45.632-23.947-15.865 15.71-37.673 25.428-61.71 25.428z"></path><path d="m329.678 104.476c-31.843 0-57.748 25.905-57.748 57.748 0 3.853.387 7.617 1.11 11.261 17.224 3.404 32.652 11.861 44.669 23.761 15.864-15.71 37.672-25.428 61.709-25.428 2.405 0 4.787.101 7.145.292.557-3.215.864-6.515.864-9.887 0-31.842-25.906-57.747-57.749-57.747z"></path><path d="m241 162.224c0-31.843-25.906-57.748-57.749-57.748s-57.748 25.905-57.748 57.748c0 3.348.302 6.625.852 9.818 2.057-.145 4.133-.224 6.226-.224 24.037 0 45.845 9.718 61.709 25.428 12.24-12.121 28.02-20.672 45.632-23.946.701-3.587 1.078-7.288 1.078-11.076z"></path><path d="m343.748 259.566c0 13.34-2.997 25.991-8.345 37.323 10.601 12.483 26.394 20.426 44.015 20.426 31.843 0 57.749-25.906 57.749-57.749s-25.906-57.748-57.749-57.748c-17.622 0-33.414 7.942-44.015 20.425 5.348 11.333 8.345 23.984 8.345 37.323z"></path><path d="m168.251 259.566c0-13.34 2.997-25.991 8.346-37.323-10.601-12.482-26.394-20.425-44.016-20.425-31.843 0-57.748 25.905-57.748 57.748s25.905 57.749 57.748 57.749c17.621 0 33.415-7.943 44.016-20.425-5.349-11.332-8.346-23.984-8.346-37.324z"></path><path d="m313.748 259.566c0-31.843-25.905-57.748-57.748-57.748s-57.749 25.905-57.749 57.748 25.906 57.749 57.749 57.749 57.748-25.906 57.748-57.749z"></path></g></svg>