<svg version="1.1" id="Capa_1" xmlns="http://www.w3.org/2000/svg" xmlns:xlink="http://www.w3.org/1999/xlink" x="0px" y="0px" viewBox="0 0 500 500" xml:space="preserve"><g><g><path d="M443.689,239.975c0-40.012-32.552-72.563-72.563-72.563c-23.429,0-44.287,11.171-57.563,28.456 c-10.196-13.274-24.868-22.929-41.742-26.698c1.165-11.074,3.98-28.024,10.799-46.288c15.244-40.831,42.568-68.959,81.211-83.604 L353.2,11.223c-22.66,8.587-42.372,21.322-58.738,37.745c-4.018-12.28-11.593-26.105-25.849-36.072 C242.56-5.32,203.779-4.233,153.349,16.125l-14.119,5.698l5.909,14.033c1.153,2.737,28.802,67.175,77.599,77.398 c4.471,0.937,8.936,1.403,13.396,1.403c6.205,0,12.396-0.911,18.562-2.717c-0.192,0.509-0.392,1.011-0.58,1.524 c-8.176,22.279-11.26,42.594-12.421,55.369c-17.513,3.516-32.756,13.36-43.257,27.033c-13.275-17.284-34.134-28.456-57.563-28.456 c-40.011,0-72.563,32.552-72.563,72.563c0,36.802,27.546,67.271,63.098,71.926c-3.56,8.56-5.536,17.939-5.536,27.773 c0,36.811,27.558,67.285,63.123,71.929c-3.576,8.576-5.559,17.977-5.559,27.834c0,40.012,32.552,72.564,72.564,72.564 c40.012,0,72.564-32.552,72.564-72.564c0-9.857-1.984-19.258-5.559-27.834c35.565-4.644,63.123-35.119,63.123-71.929 c0-9.834-1.975-19.213-5.536-27.773C416.143,307.246,443.689,276.777,443.689,239.975z M228.94,83.901 c-21.043-4.376-38.913-28.067-49.021-45.629c32.131-10.716,56.616-11.07,71.341-0.9c12.75,8.806,16.325,24.425,17.322,32.943 C254.585,82.079,241.565,86.528,228.94,83.901z M255.999,197.411c23.47,0,42.563,19.094,42.563,42.562 c0,23.47-19.094,42.562-42.563,42.562c-23.47,0-42.563-19.094-42.563-42.562C213.436,216.505,232.529,197.411,255.999,197.411z M140.872,282.537c-23.469,0-42.562-19.094-42.562-42.562c0-23.47,19.094-42.562,42.562-42.562 c23.47,0,42.562,19.094,42.562,42.562C183.434,263.444,164.341,282.537,140.872,282.537z M198.435,382.237 c-23.469-0.001-42.562-19.094-42.562-42.563c0-23.469,19.094-42.562,42.562-42.562c23.47,0,42.563,19.094,42.563,42.562 C240.998,363.144,221.905,382.237,198.435,382.237z M255.999,481.999c-23.47,0-42.563-19.094-42.563-42.563 s19.094-42.562,42.563-42.562s42.563,19.094,42.563,42.562C298.562,462.906,279.468,481.999,255.999,481.999z M313.562,382.236 c-23.47,0-42.563-19.094-42.563-42.563c0-23.469,19.094-42.562,42.563-42.562c23.47,0,42.562,19.094,42.562,42.562 C356.125,363.144,337.031,382.236,313.562,382.236z M371.125,282.537c-23.47,0-42.562-19.094-42.562-42.562 c0-23.47,19.094-42.562,42.562-42.562c23.469,0,42.562,19.094,42.562,42.562C413.688,263.444,394.594,282.537,371.125,282.537z"></path></g></g></svg>