<!-- icon666.com - MILLIONS OF FREE VECTOR ICONS --><svg id="Capa_1" enable-background="new 0 0 512 512" viewBox="0 0 512 512" xmlns="http://www.w3.org/2000/svg"><path d="m241 182.518v-90.758c-34.243 3.105-65.497 16.663-90.507 37.522l64.213 64.213c7.866-5.215 16.736-9.029 26.294-10.977z"></path><path d="m193.495 214.706-64.213-64.213c-20.86 25.01-34.417 56.264-37.522 90.507h90.758c1.948-9.558 5.762-18.428 10.977-26.294z"></path><path d="m361.507 129.282c-25.01-20.86-56.264-34.417-90.507-37.522v90.758c9.558 1.948 18.428 5.762 26.294 10.977z"></path><path d="m318.505 297.294 64.213 64.213c20.859-25.01 34.417-56.265 37.522-90.507h-90.758c-1.948 9.558-5.762 18.428-10.977 26.294z"></path><path d="m182.518 271h-90.758c3.105 34.243 16.663 65.497 37.522 90.507l64.213-64.213c-5.215-7.866-9.029-16.736-10.977-26.294z"></path><circle cx="256" cy="256" r="45"></circle><path d="m318.505 214.706c5.215 7.866 9.029 16.736 10.977 26.294h90.758c-3.105-34.243-16.663-65.497-37.522-90.507z"></path><path d="m256 0c-140.61 0-256 115.39-256 256s115.39 256 256 256 256-115.39 256-256-115.39-256-256-256zm0 451c-107.038 0-195-87.047-195-195 0-107.036 87.047-195 195-195 107.036 0 195 87.047 195 195 0 107.036-87.045 195-195 195z"></path><path d="m150.493 382.718c25.01 20.859 56.265 34.417 90.507 37.522v-90.758c-9.558-1.948-18.428-5.762-26.294-10.977z"></path><path d="m271 329.482v90.758c34.243-3.105 65.497-16.663 90.507-37.522l-64.213-64.213c-7.866 5.215-16.736 9.029-26.294 10.977z"></path></svg>