<!-- icon666.com - MILLIONS OF FREE VECTOR ICONS --><svg viewBox="0 0 512 512" xmlns="http://www.w3.org/2000/svg"><path d="m256 0c-140.609375 0-256 115.390625-256 256s115.390625 256 256 256 256-115.390625 256-256-115.390625-256-256-256zm150 271h-72.828125l39.722656 16.054688c7.675781 3.105468 11.382813 11.835937 8.277344 19.527343-3.097656 7.65625-11.828125 11.390625-19.527344 8.273438l-42.925781-17.347657 53.898438 53.898438c5.859374 5.859375 5.859374 15.351562 0 21.210938-5.859376 5.859374-15.351563 5.859374-21.210938 0l-51.441406-51.445313 16.738281 39.433594c3.238281 7.617187-.320313 16.433593-7.953125 19.671875-7.5625 3.199218-16.402344-.273438-19.671875-7.953125l-18.078125-42.578125v76.253906c0 8.289062-6.710938 15-15 15s-15-6.710938-15-15v-72.828125l-16.054688 39.722656c-3.097656 7.65625-11.828124 11.390625-19.527343 8.277344-7.675781-3.105469-11.382813-11.835937-8.273438-19.527344l17.347657-42.925781-53.898438 53.898438c-5.859375 5.859374-15.351562 5.859374-21.210938 0-5.859374-5.859376-5.859374-15.351563 0-21.210938l51.445313-51.441406-39.433594 16.738281c-7.5625 3.199219-16.402343-.273437-19.671875-7.953125-3.238281-7.617188.320313-16.4375 7.953125-19.671875l42.578125-18.078125h-76.253906c-8.289062 0-15-6.710938-15-15s6.710938-15 15-15h72.828125l-39.722656-16.054688c-7.675781-3.105468-11.382813-11.835937-8.277344-19.527343 3.09375-7.660157 11.867187-11.367188 19.527344-8.273438l42.925781 17.347657-53.898438-53.898438c-5.859374-5.859375-5.859374-15.351562 0-21.210938 5.859376-5.859374 15.351563-5.859374 21.210938 0l51.433594 51.433594-16.730469-39.421875c-3.238281-7.632812.320313-16.433593 7.953125-19.671875 7.558594-3.195312 16.40625.320313 19.671875 7.953125l18.078125 42.59375v-76.269531c0-8.289062 6.710938-15 15-15s15 6.710938 15 15v72.828125l16.054688-39.722656c3.105468-7.660157 11.851562-11.351563 19.527343-8.277344 7.675781 3.105469 11.382813 11.835937 8.273438 19.527344l-17.347657 42.925781 53.898438-53.898438c5.859375-5.859374 15.351562-5.859374 21.210938 0 5.859374 5.859376 5.859374 15.351563 0 21.210938l-51.433594 51.433594 39.421875-16.730469c7.574219-3.195313 16.421875.308594 19.671875 7.953125 3.238281 7.632812-.320313 16.4375-7.953125 19.671875l-42.59375 18.078125h76.269531c8.289062 0 15 6.710938 15 15s-6.710938 15-15 15zm0 0"></path><path d="m256 211c-24.8125 0-45 20.1875-45 45 0 6.222656 1.273438 12.152344 3.566406 17.546875.003906.011719.015625.019531.023438.03125 0 .003906 0 .007813.003906.015625 6.863281 16.09375 22.835938 27.40625 41.40625 27.40625 6.222656 0 12.148438-1.273438 17.542969-3.566406.011719-.003906.023437-.015625.035156-.023438.003906 0 .007813 0 .015625-.003906 16.09375-6.863281 27.40625-22.835938 27.40625-41.40625 0-24.8125-20.1875-45-45-45zm0 0"></path></svg>