<!-- icon666.com - MILLIONS OF FREE VECTOR ICONS --><svg version="1.1" id="Capa_1" xmlns="http://www.w3.org/2000/svg" xmlns:xlink="http://www.w3.org/1999/xlink" x="0px" y="0px" viewBox="0 0 416.484 416.484" style="enable-background:new 0 0 416.484 416.484;" xml:space="preserve"><g><g><path d="M413.602,132.8c-7.6-20.56-29.36-33.92-56.24-33.92c-7.958,0.018-15.875,1.149-23.52,3.36 c-29.721-26.184-68.157-40.308-107.76-39.6c-22.832,0.047-45.475,4.136-66.88,12.08c-64,23.44-108.4,75.6-115.36,134 c-33.36,15.04-51.2,47.12-40.96,74.96c7.6,20.64,29.68,33.92,56,33.92c7.958-0.018,15.875-1.149,23.52-3.36 c29.782,26.24,68.315,40.369,108,39.6c22.832-0.047,45.475-4.136,66.88-12.08c64-23.44,108.4-75.6,115.36-134 C406.002,192.72,423.842,160.64,413.602,132.8z M360.882,192.96l0.08,0.08c-3.364,1.268-5.657,4.409-5.84,8 c-4,52.72-45.84,102.56-104,124c-19.407,7.206-39.938,10.916-60.64,10.96c-36.722,0.877-72.298-12.813-98.96-38.08 c-2.463-2.487-6.141-3.328-9.44-2.16c-7.338,2.657-15.076,4.037-22.88,4.08c-18.88,0-34.32-8.64-39.28-22.08 c-7.2-19.52,8.8-43.76,35.68-53.92c3.364-1.268,5.657-4.409,5.84-8c4-52.72,45.84-102.56,104-123.92 c19.408-7.204,39.938-10.915,60.64-10.96c36.722-0.877,72.298,12.813,98.96,38.08c2.463,2.487,6.141,3.328,9.44,2.16 c7.338-2.657,15.076-4.037,22.88-4.08c18.88,0,34.32,8.64,39.28,22.08C403.762,158.56,387.762,182.8,360.882,192.96z"></path></g></g></svg>