<!-- icon666.com - MILLIONS OF FREE VECTOR ICONS --><svg version="1.1" id="Capa_1" xmlns="http://www.w3.org/2000/svg" xmlns:xlink="http://www.w3.org/1999/xlink" x="0px" y="0px" viewBox="0 0 512 512" style="enable-background:new 0 0 512 512;" xml:space="preserve"><g><g><path d="M490.041,98.978c7.692-10.237,11.578-22.934,10.944-35.781c-1.373-27.886-24.293-50.807-52.18-52.182 c-12.847-0.634-25.552,3.254-35.792,10.95C368.419-1.031,312.614-6.171,255.875,7.492C198.306,21.356,143.811,52.75,98.281,98.281 C52.749,143.812,21.356,198.307,7.492,255.875c-13.659,56.72-8.526,112.51,14.467,157.146 c-7.692,10.237-11.578,22.933-10.944,35.781c1.373,27.887,24.293,50.808,52.18,52.183c12.848,0.635,25.552-3.254,35.792-10.95 c28.242,14.563,60.976,21.966,95.601,21.965c20.046-0.001,40.732-2.483,61.536-7.493c57.569-13.864,112.064-45.258,157.594-90.789 c45.532-45.531,76.926-100.026,90.789-157.594C518.167,199.404,513.033,143.614,490.041,98.978z M392.502,392.502 c-83.582,83.583-198.638,112.718-279.786,70.852c-4.335-2.236-9.069-3.337-13.776-3.337c-6.373,0-12.695,2.017-17.89,5.962 c-4.729,3.59-10.379,5.331-16.378,5.036c-12.66-0.624-23.064-11.029-23.688-23.689c-0.294-5.983,1.447-11.646,5.036-16.375 c6.859-9.035,7.89-21.465,2.627-31.666C6.78,318.134,35.916,203.082,119.498,119.499C203.081,35.915,318.136,6.782,399.284,48.647 c10.203,5.265,22.633,4.233,31.666-2.626c4.729-3.59,10.367-5.334,16.378-5.036c12.66,0.624,23.064,11.03,23.688,23.689 c0.294,5.983-1.447,11.646-5.036,16.375c-6.859,9.035-7.89,21.465-2.628,31.666C505.218,193.867,476.084,308.92,392.502,392.502z"></path></g></g></svg>