<?xml version="1.0" encoding="utf-8"?>
<!-- Generator: Adobe Illustrator 21.1.0, SVG Export Plug-In . SVG Version: 6.00 Build 0)  -->
<svg version="1.1" id="Capa_1" xmlns="http://www.w3.org/2000/svg" xmlns:xlink="http://www.w3.org/1999/xlink" x="0px" y="0px"
	 viewBox="0 0 512 512" style="enable-background:new 0 0 512 512;" xml:space="preserve">
<g>
	<g>
		<path d="M363.8,254.8c-12.6-12.6-20.4-30-20.4-49.3v-37.9c0-7.1-0.9-30.8-18.3-52.8c-18.7-23.6-43.8-29.3-50.4-30.6
			c-0.1-7.4,0.7-22.3,9.1-38.3c7.2-13.8,16.7-22.4,22.4-26.8c-9.3-6.4-18.7-12.7-28-19.1c-7.6,7-20.1,20.3-28.7,40.8
			c-7.7,18.2-9,34.5-9.1,44.4c-6.3,1-31.7,6-50.7,29.4c-17.9,22.1-18.5,46.3-18.4,53l0,37.9c0,17.8-6.8,35.7-20.4,49.3
			c-27.2,27.2-44.1,64.9-44.1,106.5c0,83.1,67.4,150.6,150.6,150.6s150.6-67.4,150.6-150.6C407.9,319.6,391.1,282,363.8,254.8z"/>
	</g>
</g>
</svg>
