<!-- icon666.com - MILLIONS OF FREE VECTOR ICONS --><svg version="1.1" id="Capa_1" xmlns="http://www.w3.org/2000/svg" xmlns:xlink="http://www.w3.org/1999/xlink" x="0px" y="0px" viewBox="0 0 511.998 511.998" style="enable-background:new 0 0 511.998 511.998;" xml:space="preserve"><g><g><path d="M507.423,11.492c-5.35-5.35-13.025-5.5-18.136-2.465l-71.84,43.101c5.804,15.109,10.2,30.615,11.923,46.55 c5.721-0.47,11.417-1.323,17.158-1.323c7.34,0,14.675,0.432,21.965,1.192l41.368-68.946 C512.555,25.114,512.94,17.024,507.423,11.492z"></path></g></g><g><g><path d="M345.225,159.735c-64.409-64.439-168.8-64.484-233.254,0l-63.625,63.611c-64.441,64.41-64.484,168.815,0,233.269 c64.41,64.44,168.814,64.483,233.268-0.001l63.611-63.625C409.665,328.58,409.71,224.189,345.225,159.735z M269.944,188.963h29.99 c8.288,0,14.995,6.707,14.995,14.995v29.99c0,8.288-6.707,14.995-14.995,14.995c-8.288,0-14.995-6.707-14.995-14.995v-14.995 h-14.995c-8.288,0-14.995-6.707-14.995-14.995C254.949,195.67,261.655,188.963,269.944,188.963z M239.954,248.942 c8.288,0,14.995,6.707,14.995,14.995v29.99c0,8.288-6.707,14.995-14.995,14.995c-8.288,0-14.995-6.707-14.995-14.995v-14.995 h-14.995c-8.288,0-14.995-6.707-14.995-14.995c0-8.288,6.707-14.995,14.995-14.995H239.954z M179.975,158.974h29.99 c8.288,0,14.995,6.707,14.995,14.995v29.99c0,8.288-6.707,14.995-14.995,14.995c-8.288,0-14.995-6.707-14.995-14.995v-14.995 h-14.995c-8.288,0-14.995-6.707-14.995-14.995C164.98,165.68,171.687,158.974,179.975,158.974z M119.996,218.953h29.99 c8.288,0,14.995,6.707,14.995,14.995v29.99c0,8.288-6.707,14.995-14.995,14.995c-8.288,0-14.995-6.707-14.995-14.995v-14.995 h-14.995c-8.288,0-14.995-6.707-14.995-14.995C105.001,225.66,111.708,218.953,119.996,218.953z M45.022,293.927 c0-8.288,6.707-14.995,14.995-14.995h29.99c8.288,0,14.995,6.707,14.995,14.995v29.99c0,8.288-6.707,14.995-14.995,14.995 c-8.288,0-14.995-6.707-14.995-14.995v-14.995H60.017C51.728,308.922,45.022,302.215,45.022,293.927z M134.99,413.885 c0,8.288-6.707,14.995-14.995,14.995c-8.288,0-14.995-6.707-14.995-14.995V398.89H90.006c-8.288,0-14.995-6.707-14.995-14.995 s6.707-14.995,14.995-14.995h29.99c8.288,0,14.995,6.707,14.995,14.995V413.885z M149.985,338.911 c-8.288,0-14.995-6.707-14.995-14.995c0-8.288,6.707-14.995,14.995-14.995h29.99c8.288,0,14.995,6.707,14.995,14.995v29.99 c0,8.288-6.707,14.995-14.995,14.995c-8.288,0-14.995-6.707-14.995-14.995v-14.995H149.985z M224.959,443.875 c0,8.288-6.707,14.995-14.995,14.995c-8.288,0-14.995-6.707-14.995-14.995V428.88h-14.995c-8.288,0-14.995-6.707-14.995-14.995 c0-8.288,6.707-14.995,14.995-14.995h29.99c8.288,0,14.995,6.707,14.995,14.995V443.875z M284.938,383.896 c0,8.288-6.707,14.995-14.995,14.995s-14.995-6.707-14.995-14.995v-14.995h-14.995c-8.288,0-14.995-6.707-14.995-14.995 s6.707-14.995,14.995-14.995h29.99c8.288,0,14.995,6.707,14.995,14.995V383.896z M344.917,323.916 c0,8.288-6.707,14.995-14.995,14.995c-8.288,0-14.995-6.707-14.995-14.995v-14.995h-14.995c-8.288,0-14.995-6.707-14.995-14.995 c0-8.288,6.707-14.995,14.995-14.995h29.99c8.288,0,14.995,6.707,14.995,14.995V323.916z"></path></g></g><g><g><path d="M511.865,147.128c-0.849-6.356-5.637-11.466-11.919-12.711c-9.458-0.632-62.412-20.604-128.887,9.22 c19.642,21.043,34.165,45.647,42.844,72.402c43.688-33.977,68.852-42.007,89.806-53.506 C509.435,159.662,512.715,153.469,511.865,147.128z"></path></g></g><g><g><path d="M372.579,25.793c-2.548-5.081-7.731-8.288-13.413-8.288c-5.682,0-10.865,3.207-13.413,8.288 c-5.269,9.73-14.467,33.015-41.106,71.051c15.213,6.447,29.525,14.96,42.769,25.201c16.534-8.413,34.176-14.767,52.391-18.862 C395.897,64.003,379.467,41.715,372.579,25.793z"></path></g></g></svg>