<?xml version="1.0" encoding="utf-8"?>
<!-- Generator: Adobe Illustrator 21.1.0, SVG Export Plug-In . SVG Version: 6.00 Build 0)  -->
<svg version="1.1"
	 id="Layer_1" text-rendering="geometricPrecision" image-rendering="optimizeQuality" shape-rendering="geometricPrecision"
	 xmlns="http://www.w3.org/2000/svg" xmlns:xlink="http://www.w3.org/1999/xlink" x="0px" y="0px" viewBox="0 0 512 512"
	 style="enable-background:new 0 0 512 512;" xml:space="preserve">
<g id="Layer_x0020_1">
	<g id="_531254032">
		<path d="M288.2,416c-11.2,13.6-27.8,22.1-45.7,23c-6.7,12.7-7.9,29.3-2.1,42.7c7.6,19.1,26,32.4,47.8,32.4
			c38.7,0,63.2-41.1,45.7-75C315.7,438.1,299.4,429.7,288.2,416z"/>
		<path d="M224.4,457.8c0.3-6.7,1.8-13,4.5-19.4c-15.4-2.4-29.6-10.3-39.6-22.4c-11.2,13.6-27.5,22.1-45.7,23
			c-17.5,33.9,7,75,45.7,75c16.9,0,32.4-7.9,42.1-21.5C225.9,481.7,223.5,469.9,224.4,457.8z"/>
		<path d="M162.4,421.5c8.2-3.9,14.5-9.4,19.7-16.6c-9.1-17.5-9.7-38.7-1.5-56.6c-10.9-4.2-20.3-11.2-27.8-20.3
			c-14.5,17.5-36.3,26-58.1,24.2H94c-19.4,38.7,15.4,83.2,58.4,72.9L162.4,421.5z"/>
		<path d="M193.2,351.6c-17.5,33.9,7,75,45.7,75c32.4,0,56.3-29.6,50.5-61.1l-0.3-0.3c-0.9-5.1-2.7-10-5.1-14.5
			c-0.6-1.2-1.2-2.1-1.8-3.3c-10.3-3.9-19.1-10.9-26.3-19.4C240.7,346.5,216.8,355.5,193.2,351.6z"/>
		<path d="M298.5,351.9c6.7,17.2,5.7,36.6-3,52.9c10,13.9,25.4,21.8,42.1,21.8c28.4,0,51.4-23.3,51.4-51.4
			c0-11.5-3.6-22.1-10.3-30.9c-7-3.9-13.3-9.1-18.8-15.4l-0.9-0.6c-13.6,16.3-34.5,25.4-56,23.9L298.5,351.9z"/>
		<path d="M368.7,319.5c11.2,12.7,24.8,20.3,42.4,20.3c29.6,0,53.8-24.2,53.8-54.2c0-30.3-25.4-54.8-55.4-53.8
			c-13.3,0.3-26,5.7-35.7,14.8l-7.3,8.2c3.3,6.4,5.7,13,6.7,20c2.4,14.2,0.3,29-6.7,42.1C367.5,317.7,368.1,318.6,368.7,319.5z"/>
		<path d="M335.7,331.9c13.6-8.5,23.3-22.7,25.4-39.3l0.3-7c0-26.6-19.4-48.7-45.1-52.9c-19.1-3-38.1,3.6-50.8,19.4l-2.1,2.7
			c10,19.4,10,42.7,0,62c6.7,9.4,16.3,16.6,27.2,20.3c5.7,1.2,7.6,2.1,14.2,2.7C315.7,340.1,326.3,337.7,335.7,331.9z"/>
		<path d="M258,291.4c0.6-6.7,0.3-13-1.5-19.4c-5.4-21.2-23.6-37.2-45.7-39.9c-17.5-1.5-33.6,3.9-46,16.9l-4.8,5.7
			c10.3,19.4,10.3,42.7,0,62c7.6,10.3,18.8,18.2,30.9,21.2c7,1.2,8.8,2.1,16,1.8c25.4-1.2,47.5-20.6,50.8-46.9L258,291.4z"/>
		<path d="M154.5,279c-3.6-26.9-26.6-47.8-54.8-47.2c-29,0.9-52.6,24.2-52.6,53.8c0,28.1,21.5,51.1,48.1,53.8
			c5.1,0.6,10,0.3,15.1-0.6c24.8-4.2,42.4-24.8,44.5-48.7L154.5,279z"/>
		<path d="M101,219.1c19.1,0.3,36.6,7.6,49.6,22.1c2.1-0.6,3.9-1.2,6.1-1.8c6.4-6.7,13.9-11.8,22.4-15.4c1.8-1.8,3.6-3.9,5.1-6.1
			c-11.2-21.2-11.2-46.6,0-67.2c-1.2-2.1-2.7-3.9-4.5-5.7c-20,2.7-40.8,11.5-48.1,36c-1.8,6.7-11.8,5.7-12.4-1.2
			c0-2.1-1.8-29.3,15.1-54.5c-47.8,1.2-74.1,56.3-45.4,94.4l7-0.3L101,219.1z"/>
		<path d="M266.4,145.6c-5.4,7.3-23.6,34.5-16.6,64.4c0.6,2.7,1.2,4.5-0.6,7c-1.2,1.5-3,2.4-5.1,2.4c-0.9,0-9.1-0.3-16.3-9.1
			c-7-8.2-10.3-20.9-10.3-38.1c0-9.1,0.9-17.2,2.1-26c-3.6-0.6-9.1-1.5-15.4-1.8c-19.4,20.9-20.9,52.3-3.9,75
			c3.9-0.3,7.9-0.3,11.5,0.3c18.2,0.6,34.8,7.9,47.8,20c9.1-9.7,21.2-16.3,34.2-19.1l4.2-6.1c9.1-15.1,11.2-33.3,4.8-50.5l-5.1-10.6
			c-1.2-2.1-2.7-4.2-4.2-6.1c-6.4-1.5-12.7-2.1-19.7-2.1C271.3,145.3,268.9,145.3,266.4,145.6z"/>
		<path d="M369.6,184.9c-0.9,5.4-8.2,7.3-11.5,2.7c0-0.3-16.6-22.7-46.3-34.8c10,20.6,9.7,44.8-1.2,65c0.3,0.3,0.9,0.9,1.2,1.5
			c1.8,0,3.9,0.3,5.7,0.6c2.4-0.3,5.1-0.6,7.6-0.6c15.7,0,31.2,5.1,43.9,14.5c10.6-8.5,23.6-13.6,37.2-14.5
			c29.6-39.9-0.6-96.8-50.2-94.1c1.8,2.1,3.3,4.5,4.8,6.7C370.2,146.8,373.5,164.3,369.6,184.9z"/>
		<path d="M273.7,132.6c41.4,0,70.5,22.1,84.7,36.3c0-16.9-6.1-31.2-19.7-43.3c-0.3-0.3-0.6-0.6-0.9-0.9
			c-17.8-15.7-41.4-20.9-43.3-21.2c-7.9-1.5-6.1-13.3,1.8-12.4c27.5,2.4,61.4,2.1,77.4-7.9c-36.6,8.5-56.6-47.8-104.4-10.9
			c-4.2,3.3-10.6,0.3-10.3-5.1l1.2-57.2c0-6.7-5.1-12.1-11.5-12.1c-6.4,0-11.8,5.1-11.8,11.5l-1.2,61.1c-0.3,5.4-6.1,8.2-10.9,4.8
			c-16.9-12.1-29.6-17.5-40.5-17.5c-18.5,0-32.1,16.3-66.9,16.9c10.3,7.6,36,12.4,69.6,12.4c4.5,0,7-0.3,7-0.3
			c7.3-0.6,9.4,10.6,1.8,12.7c-30,7.3-50.5,23.6-59.6,50.2c13.3-12.1,33-18.5,58.4-18.5c17.8,0,33,3,35.7,4.5s2.7,5.1,2.7,5.1
			l-1.2,9.1c-3.9,28.7-0.9,42.1,3.6,49.9c-0.3-7.3,0.3-8.2,0.6-14.5c0.6-7.6,4.8-18.5,5.1-20c0.3-2.7,6.1-13.9,7.9-16.6l3.9-6.7
			l5.4-7.3h0.3v-0.3l0.3-0.3h0.3l0.3-0.3h0.3v-0.3h0.3h0.3v-0.3h0.3h0.3h0.3v-0.3h0.3h0.6L273.7,132.6z"/>
	</g>
</g>
</svg>
