<!-- icon666.com - MILLIONS OF FREE VECTOR ICONS --><svg id="Capa_1" enable-background="new 0 0 511.999 511.999" viewBox="0 0 511.999 511.999" xmlns="http://www.w3.org/2000/svg"><g><path d="m504.149 187.945c0-59.018-48.015-107.033-107.033-107.033-3.807 0-7.628.208-11.438.62-10.626-22.135-26.707-41.132-47.022-55.421-24.287-17.082-52.869-26.111-82.657-26.111s-58.37 9.029-82.656 26.111c-16.886 11.877-30.834 27.015-41.168 44.496 33.145 9.901 61.117 33.828 75.643 66.413l-27.4 12.215c-14.531-32.595-46.972-53.657-82.648-53.657-37.189 0-69.204 22.567-83.08 54.724-4.416 11.716-6.84 24.4-6.84 37.643 0 41.79 24.219 79.308 61.368 96.805-.009.454-.013.909-.013 1.363 0 38.719 31.501 70.22 70.22 70.22h41.596l-41.381-81.074 26.719-13.643 44.307 86.776v163.607h83.667v-119.837l34.606-44.234c9.809 4.442 33.835 8.405 43.635 8.405s18.61-1.915 26.9-5.366c33.475-11.789 58.418-41.828 62.824-78.114 25.887-19.869 41.851-50.98 41.851-84.908zm-242.709 185.054-64.8-126.841 26.716-13.648 43.555 85.254 14.23-17.972c4.33 9.74 10.25 18.62 17.431 26.312z"></path></g></svg>