<!-- icon666.com - MILLIONS OF FREE VECTOR ICONS --><svg version="1.1" id="Capa_1" xmlns="http://www.w3.org/2000/svg" xmlns:xlink="http://www.w3.org/1999/xlink" x="0px" y="0px" viewBox="0 0 512 512" style="enable-background:new 0 0 512 512;" xml:space="preserve"><g><g><path d="M451.399,166.144c2.437-7.729,3.758-15.952,3.758-24.486c0-44.92-36.415-81.334-81.334-81.334 c-13.476,0-26.174,3.297-37.366,9.098C330.693,30.15,296.872,0,256,0s-74.692,30.15-80.457,69.421 c-11.192-5.801-23.89-9.098-37.366-9.098c-44.92,0-81.334,36.415-81.334,81.334c0,8.534,1.321,16.757,3.758,24.486 c-33.436,10.098-57.79,41.129-57.79,77.86c0,44.92,36.415,81.334,81.334,81.334c38.612,0,70.915-26.914,79.233-62.999 c21.151,22.411,54.763,36.904,92.621,36.904c37.859,0.001,71.471-14.493,92.622-36.903c8.318,36.085,40.622,62.999,79.233,62.999 c44.92,0,81.334-36.414,81.334-81.334C509.188,207.274,484.836,176.242,451.399,166.144z M207.211,154.625 c-0.1-0.011-10.205-1.091-20.218,2.811c-11.917,4.644-18.6,14.472-20.429,30.047l-29.795-3.5 c2.329-19.827,10.297-35.189,23.682-45.657c21.253-16.623,47.517-13.845,50.439-13.474l-3.78,29.762L207.211,154.625z M345.417,187.31c-1.204-11.384-5.064-19.54-11.802-24.934c-11.58-9.271-28.72-7.763-28.89-7.743l-3.449-29.801 c2.99-0.345,29.833-2.891,51.088,14.125c13.126,10.508,20.826,25.715,22.887,45.197L345.417,187.31z"></path></g></g><g><g><path d="M358.05,330.726c-7.929-6.392-14.914-13.838-20.78-22.059c-15.86,8.913-33.707,15.1-52.62,18.226l-0.441,1.046 L256,382.391l-28.208-54.452l-0.441-1.046c-18.913-3.126-36.76-9.313-52.62-18.226c-5.866,8.221-12.851,15.668-20.78,22.059 c-6.114,4.928-12.721,9.167-19.682,12.672l25.388,40.872c12.333,19.854,18.852,42.703,18.852,66.075V512h154.984v-61.655 c0-23.372,6.519-46.221,18.852-66.075l25.388-40.872C370.771,339.893,364.164,335.655,358.05,330.726z"></path></g></g></svg>