<!-- icon666.com - MILLIONS OF FREE VECTOR ICONS --><svg id="Capa_1" enable-background="new 0 0 512 512" viewBox="0 0 512 512" xmlns="http://www.w3.org/2000/svg"><g><path d="m200.117 111.715c19.769 8.361 38.437 18.686 55.883 30.841 16.128-11.236 33.307-20.893 51.428-28.894-7.451-6.557-16.857-14.034-28.2-21.532l16.543-25.026c19.316 12.769 33.706 25.57 42.927 34.728 27.549-8.738 56.135-13.512 85.372-14.21-2.155-2.339-4.352-4.65-6.614-6.912-43.126-43.126-100.466-66.877-161.456-66.877s-118.329 23.751-161.456 66.878c-2.263 2.263-4.459 4.573-6.614 6.912 38.846.928 76.551 9.019 112.187 24.092z"></path><path d="m29.848 122.132c-19.043 35.803-29.848 76.654-29.848 120.035 0 96.536 53.442 180.579 132.347 224.192-5.52-23.248-8.322-47.105-8.322-71.229 0-16.899 1.372-33.591 4.054-50.008-21.346-28.468-40.31-60.991-56.424-96.799l27.357-12.311c11.325 25.166 24.107 48.564 38.163 69.899 3.13-10.322 6.798-20.506 11.035-30.522 15.494-36.632 37.669-69.525 65.909-97.765 5.46-5.46 11.099-10.687 16.9-15.689-43.39-28.087-95.108-44.404-150.642-44.404-17.258-.001-34.143 1.587-50.529 4.601z"></path><path d="m482.152 122.132c-16.386-3.014-33.271-4.602-50.529-4.602-153.314 0-277.599 124.285-277.599 277.599 0 20.24 2.185 39.967 6.302 58.974l9.342-.903c13.068-.958 48.174-8.668 87.152-30.963 14.605-8.354 28.697-18.083 42.184-29.09-13.903-17.578-33.878-54.925-25.889-118.84l29.768 3.721c-6.584 52.677 8.522 82.052 18.466 95.162 4.973-4.847 9.85-9.874 14.616-15.093 30.068-32.927 55.982-73.33 77.022-120.085l27.357 12.311c-22.558 50.128-50.528 93.529-83.136 128.997-26.281 28.586-55.61 52.108-87.173 69.913-52.657 29.704-96.007 33.761-100.135 34.08 26.908 9.609 55.889 14.855 86.098 14.855 141.385 0 256-114.615 256-256 .002-43.382-10.803-84.233-29.846-120.036z"></path></g></svg>