<!-- icon666.com - MILLIONS OF FREE VECTOR ICONS --><svg id="Capa_1" enable-background="new 0 0 510.472 510.472" viewBox="0 0 510.472 510.472" xmlns="http://www.w3.org/2000/svg"><g id="XMLID_2037_"><path id="XMLID_2165_" d="m465.831 130.819c-7.633-10.74-14.107-17.981-16.182-20.532-4.57-.017-24.748-2.32-55.119 2.349-182.235 28.012-268.684 238.252-156.636 384.15 45.353-88.854 118.539-232.236 124.574-244.059l26.732 13.613c-3.827 7.498-78.479 153.754-124.606 244.121 24.618.236 74.147-3.234 126.471-33.925 121.379-71.193 156.739-230.341 74.766-345.717z"></path><path id="XMLID_2166_" d="m158.207 338.731-36.864-72.391 26.733-13.613 17.493 34.351c10.853-44.193 33.495-87.313 67.601-122.886-33.371-26.976-73.667-44.872-117.155-51.557-29.495-4.535-51.245-2.362-55.118-2.349-1.72 2.935-51.152 52.389-59.456 135.853-12.952 130.161 81.555 243.697 207.356 261.776-36.583-50.991-53.084-110.948-50.59-169.184z"></path><path id="XMLID_2183_" d="m252.028 140.862 3.31 2.675c41.735-34.798 93.524-56.916 150.086-62.501-69.646-107.645-229.685-108.462-300.149.035 52.765 5.13 104.205 25.396 146.753 59.791z"></path></g></svg>