<?xml version="1.0" encoding="utf-8"?>
<!-- Generator: Adobe Illustrator 21.1.0, SVG Export Plug-In . SVG Version: 6.00 Build 0)  -->
<svg version="1.1" id="Capa_1" xmlns="http://www.w3.org/2000/svg" xmlns:xlink="http://www.w3.org/1999/xlink" x="0px" y="0px"
	 viewBox="0 0 512 512" style="enable-background:new 0 0 512 512;" xml:space="preserve">
<style type="text/css">
	.st0{display:none;fill:none;stroke:#000000;stroke-width:0.7892;stroke-miterlimit:10;}
</style>
<g>
	<path d="M327.4,272.5l-6.3-18.8l-17.6,2.2c-17.2,2.2-32.4-11.2-32.4-28.5v-20.2l-18.5-6.2c-5.8-1.9-10.7-5.6-14.3-10.5
		c-23.6,30.4-55.8,53.4-92.4,65.8c-3.1,1-3,1-3,1c-34.6,12.2-58,45.2-58,82c0,48.4,39.1,87.6,87,87.6c15.5,0,30.6-4.1,43.9-11.9
		l13.6-7.4c50.1-27.3,91.6-67.4,120.6-115.8C339.5,290.3,330.8,282.9,327.4,272.5L327.4,272.5z"/>
	<path d="M408.7,117.4l-21.1-16c-3.5-2.7-8.5-2.6-11.9,0.2l-33,27.3c-8.9,7.4-20.3,11.4-32.2,11.4c-23.2,0-43.4,10.7-56.4,27.4
		c-4.1,5.2-1.8,12.9,4.6,15l31.7,10.6v34c0,5.8,5.1,10.3,10.8,9.5l33.1-4.2l11.2,33.8c1.3,3.8,4.9,6.6,9.1,6.6c3.7,0,7-2.1,8.7-5.4
		c4.2-8.7,8.1-17.6,11.5-26.7c5.5-11.9,7.3-24.5,6.1-36.8c-1-10.4,1-20.6,5.8-29.4l24.8-45.1C413.7,125.5,412.6,120.3,408.7,117.4
		L408.7,117.4z"/>
</g>
<circle class="st0" cx="256" cy="256" r="206"/>
</svg>
