<!-- icon666.com - MILLIONS OF FREE VECTOR ICONS --><svg id="Capa_1" enable-background="new 0 0 512.004 512.004" viewBox="0 0 512.004 512.004" xmlns="http://www.w3.org/2000/svg"><g><path d="m373.954 265.149c-135.918 18.749-166.747-32.698-193.948-78.087-2.458-4.102-4.878-8.135-7.333-12.054h3.331c12.547 0 19.562-14.56 11.713-24.371-1.412-1.765-34.254-42.083-91.904-52.556-12.15-16.963-10.61-52.171-8.959-63.952 1.53-10.714-8.478-19.492-18.903-16.563l-57 16c-8.134 2.283-12.787 10.843-10.264 18.916l22.773 72.875c-22.456 32.989-22.456 59.959-22.456 106.651 0 6.067 3.654 11.537 9.26 13.858 5.605 2.322 12.057 1.038 16.347-3.252l2.522-2.522c23.534 137.035 149.541 254.916 346.872 254.916 78.011 0 136-32.486 136-111-.001-78.854-61.065-129.48-138.051-118.859zm-319.633-141.615-20.393-65.258 21.715-6.095c-.139 21.129 3.27 51.949 21.755 70.434 2.295 2.295 5.272 3.784 8.485 4.243 19.832 2.833 36.402 10.272 49.121 18.151h-23c-7.465 0-13.794 5.489-14.85 12.879l-4.286 30.003-19.494-15.595c-5.968-4.776-14.572-4.297-19.977 1.106l-21.787 21.786c1.37-23.393 5.837-38.771 20.394-58.18 2.894-3.858 3.756-8.871 2.317-13.474zm398.577 323.087c-17.866 12.201-43.737 18.387-76.894 18.387-197.213 0-309.252-125.525-320.081-251.705l9.194-9.194 29.517 23.613c9.047 7.241 22.579 1.891 24.22-9.592l6.16-43.121h10.994c35.319 42.127 52.113 146.059 242.046 119.859 57.11-7.878 103.95 26.658 103.95 89.141 0 28.756-9.52 49.237-29.106 62.612z"></path></g></svg>