<!-- icon666.com - MILLIONS OF FREE VECTOR ICONS --><svg id="Capa_1" enable-background="new 0 0 511.999 511.999" viewBox="0 0 511.999 511.999" xmlns="http://www.w3.org/2000/svg"><path d="m509.07 32.929-30-30c-1.964-1.963-4.668-3.023-7.43-2.922-2.775.1-5.384 1.349-7.201 3.448l-56.843 65.649c-19.846-12.467-43.263-18.417-66.901-16.854-27.041 1.787-52.498 13.335-71.682 32.519-2.45 2.451-3.457 5.996-2.661 9.369s3.282 6.093 6.57 7.189l1.795.598-230.67 194.354c-26.083 21.074-42.073 52.489-43.875 86.209-1.849 34.6 11.271 68.623 35.993 93.345 23.187 23.187 54.548 36.167 86.899 36.166 2.144 0 4.297-.057 6.447-.172 33.72-1.802 65.135-17.792 86.209-43.875l194.354-230.671.598 1.795c1.097 3.288 3.816 5.774 7.189 6.57.763.18 1.533.268 2.298.268 2.621 0 5.174-1.032 7.071-2.929 19.183-19.183 30.731-44.641 32.519-71.682 1.562-23.637-4.389-47.055-16.854-66.901l65.649-56.842c2.099-1.818 3.348-4.426 3.447-7.201s-.958-5.466-2.921-7.43zm-308.713 422.218c-.046.055-.092.11-.137.166-17.774 22.042-43.265 35.019-71.776 36.542-28.941 1.545-57.421-9.448-78.137-30.164s-31.71-49.195-30.164-78.136c1.523-28.511 14.501-54.001 36.543-71.776.056-.045.111-.09.166-.137l240.106-202.304 33.96 11.32v50.423c0 5.523 4.478 10 10 10h50.422l11.32 33.96zm222.686-360.01c-3.975 3.442-4.605 9.375-1.443 13.575 23.861 31.69 24.103 75.076 2.367 106.999l-15.931-47.792c-1.361-4.083-5.183-6.838-9.487-6.838h-47.63v-47.63c0-4.304-2.754-8.125-6.838-9.487l-47.792-15.931c31.922-21.736 75.308-21.496 106.999 2.366 4.2 3.161 10.132 2.533 13.574-1.443l55.663-64.287 14.805 14.804z"></path></svg>