<svg version="1.1" id="Capa_1" xmlns="http://www.w3.org/2000/svg" xmlns:xlink="http://www.w3.org/1999/xlink" x="0px" y="0px" viewBox="0 0 500 500" xml:space="preserve"><g><g><path d="M409.534,75.984C369.666,28.143,316.741,1.301,260.114,0.06C258.75,0.023,257.38,0,256.001,0 c-1.379,0-2.75,0.023-4.113,0.06C195.26,1.301,142.335,28.143,102.467,75.985c-40.175,48.209-62.3,112.141-62.3,180.016 s22.125,131.807,62.3,180.016C143.3,485.015,197.826,512,256.001,512c58.175,0,112.7-26.985,153.533-75.984 c40.174-48.21,62.299-112.141,62.299-180.016S449.708,124.194,409.534,75.984z M252.42,30.055 c1.192-0.028,2.383-0.056,3.581-0.056c1.197,0,2.389,0.027,3.581,0.056c35.58,1.073,61.751,17.978,61.751,33.145 c0,15.672-27.94,33.2-65.332,33.2c-37.393,0-65.334-17.528-65.334-33.2C190.667,48.033,216.839,31.128,252.42,30.055z M256.001,482C153.532,482,70.167,380.617,70.167,256c0-82.273,36.341-154.406,90.521-193.938 c-0.01,0.379-0.021,0.758-0.021,1.138c0,35.439,41.875,63.2,95.334,63.2c53.457,0,95.332-27.761,95.332-63.2 c0-0.381-0.011-0.759-0.021-1.138c54.18,39.529,90.521,111.665,90.521,193.938C441.833,380.617,358.469,482,256.001,482z"></path></g></g></svg>