<!-- icon666.com - MILLIONS OF FREE VECTOR ICONS --><svg version="1.1" id="Capa_1" xmlns="http://www.w3.org/2000/svg" xmlns:xlink="http://www.w3.org/1999/xlink" x="0px" y="0px" viewBox="0 0 409.723 409.723" style="enable-background:new 0 0 409.723 409.723;" xml:space="preserve"><g><g><path d="M267.556,66.325c-11.407-3.722-21.519-9.303-29.844-16.236l-0.241-0.23c-0.072-0.067-0.164-0.087-0.241-0.154 c-10.808-9.134-18.529-20.593-22.036-33.285l-2.545-9.21c-1.219-4.413-5.274-7.26-10.255-7.209 c-4.884,0.102-8.852,3.154-9.876,7.588l-1.782,7.741c-5.345,23.24-24.76,42.737-51.932,52.152 C65.91,92.77,21.488,155.331,28.278,223.171c7.306,73.001,75.361,131.773,159.442,138.726l-22.845,22.41 c-2.022,1.981-2.048,5.222-0.072,7.24c1.003,1.024,2.33,1.536,3.656,1.536c1.295,0,2.591-0.486,3.584-1.464l25.298-24.817v37.801 c0,2.826,2.294,5.12,5.12,5.12s5.12-2.294,5.12-5.12v-37.801l25.293,24.812c0.993,0.978,2.289,1.464,3.584,1.464 c1.326,0,2.652-0.512,3.656-1.536c1.981-2.017,1.951-5.258-0.072-7.24l-22.543-22.113c45.251-2.77,87.48-20.219,118.451-49.577 c29.778-28.227,46.177-64.829,46.177-103.06C382.126,146.253,336.082,88.7,267.556,66.325z M38.466,222.152 c-6.308-63.027,35.364-121.288,103.7-144.983c0.533-0.184,1.034-0.399,1.562-0.589c-40.274,46.797-59.858,95.201-56.796,141.266 c3.087,46.459,28.948,90.173,76.795,130.155C96.307,333.282,44.554,282.993,38.466,222.152z M184.048,351.269 c-0.143-0.133-0.22-0.312-0.379-0.43c-54.241-41.042-83.348-86.016-86.513-133.673c-3.277-49.239,21.381-101.775,71.224-152.141 c-21.294,59.187-46.909,189.614,20.147,286.669C187.028,351.571,185.538,351.427,184.048,351.269z M205.148,351.862 c-0.113,0.154-0.138,0.338-0.236,0.502c-1.193,0-2.391-0.026-3.584-0.046c-0.087-0.148-0.107-0.312-0.215-0.451 C113.986,234.788,174.243,62.572,190.12,41.82c0.031-0.041,0.036-0.097,0.067-0.138c4.971-7.404,8.571-15.493,10.537-24.044 l1.7-7.378c0.195-0.056,0.415-0.107,0.369-0.297l2.54,9.195c2.217,8.033,5.878,15.616,10.752,22.554 c0.026,0.036,0.026,0.072,0.051,0.108C232.018,62.572,292.27,234.788,205.148,351.862z M217.574,351.924 c67.533-97.48,41.4-228.767,20.04-287.647c24.627,24.248,75.848,79.918,72.371,148.183c-2.473,48.548-32.036,95.36-87.849,139.156 C220.621,351.75,219.095,351.822,217.574,351.924z M328.914,305.189c-23.547,22.318-54.026,37.361-87.404,43.74 c49.782-42.665,76.283-88.33,78.705-135.946c2.98-58.506-31.145-107.592-57.902-137.646c0.691,0.241,1.372,0.507,2.074,0.737 c64.302,20.987,107.505,74.634,107.505,133.489C371.891,244.957,356.628,278.918,328.914,305.189z"></path></g></g></svg>