<?xml version="1.0" encoding="utf-8"?>
<!-- Generator: Adobe Illustrator 21.1.0, SVG Export Plug-In . SVG Version: 6.00 Build 0)  -->
<svg version="1.1" id="Layer_1" xmlns="http://www.w3.org/2000/svg" xmlns:xlink="http://www.w3.org/1999/xlink" x="0px" y="0px"
	 viewBox="0 0 512 512" style="enable-background:new 0 0 512 512;" xml:space="preserve">
<style type="text/css">
	.st0{display:none;fill:none;stroke:#000000;stroke-width:0.7892;stroke-miterlimit:10;}
</style>
<g id="_x32_9_Onion">
	<g>
		<path d="M267.5,426.2l25.7,25.7c1.7,1.7,1.7,4.3,0,5.9c-1.7,1.7-4.3,1.7-5.9,0l-19.7-19.5l5.3,15.2c0.8,2.2-0.4,4.6-2.6,5.4
			c-2.2,0.7-4.6-0.4-5.4-2.7l-7.6-21.4l-7.6,21.4c-0.7,2.2-3.1,3.4-5.4,2.7c-2.2-0.8-3.4-3.2-2.7-5.4l5.3-15.2l-19.5,19.6
			c-1.7,1.7-4.3,1.7-6,0s-1.7-4.3,0-5.9l25.7-25.7c-103-4-185.1-68.2-185.1-146.6c0-57.8,45.3-110.4,115.3-133.9
			c28.9-9.7,48.4-36.2,48.4-66.1c0.1-0.4-0.6-4.2,2.7-5.5l54.9-21.4c2.8-1.1,5.8,1,5.8,3.9v23c0,29.8,19.4,56.3,48.4,66.1
			c70.1,23.6,115.3,76.1,115.3,133.9C452.9,358.1,370.6,422.2,267.5,426.2L267.5,426.2z"/>
	</g>
</g>
<circle class="st0" cx="256" cy="256" r="206"/>
</svg>
