<!-- icon666.com - MILLIONS OF FREE VECTOR ICONS --><svg id="Layer_1" enable-background="new 0 0 511.505 511.505" viewBox="0 0 511.505 511.505" xmlns="http://www.w3.org/2000/svg"><path d="m438.575 128.587c-18.624-46.935-47.296-81.782-85.22-103.576-70.663-42.37-186.913-30.402-241.648 32.067-27.495 29.937-46.376 73.547-56.12 129.617-15.663 93.717-6.625 249.494 91.861 299.48 77.92 40.592 196.763 34.118 256.192-31.94 10.149-10.899 18.669-23.241 25.324-36.682 41.297-90.419 43.237-197.286 9.611-288.966zm-289.049 123.145c-8.548.102-16-6.125-16-14.997.48-20.008 30.381-19.751 31.001 0 .038 8.116-6.868 15.075-15.001 14.997zm55-164.997c7.745-.399 15.072 5.334 15.89 13.17 1.148 9.06-6.742 17.496-15.89 16.83-19.875-.735-19.872-29.267 0-30zm2.999 334.974c-3.731.199-7.449-.913-10.387-3.274-3.456-2.777-5.612-7.177-5.612-11.699 0-19.52 31-19.565 31 0 0 3.727-1.413 7.369-3.928 10.12-2.801 3.062-6.97 4.634-11.073 4.853zm116-260.974c-19.874-.734-19.872-29.267 0-30 7.623-.391 14.872 5.153 15.847 12.846 1.397 9.151-6.565 17.831-15.847 17.154zm27.001 174.012c-8.425.465-16.152-6.413-16.001-15.012-.086-13.155 15.791-19.506 25.607-11.52 10.722 8.82 4.119 26.222-9.606 26.532z"></path></svg>