<!-- icon666.com - MILLIONS OF FREE VECTOR ICONS --><svg id="Layer_1" enable-background="new 0 0 512 512" viewBox="0 0 512 512" xmlns="http://www.w3.org/2000/svg"><g><path d="m455.72 157.679c-20.199-21.815-44.111-38.19-70.207-48.507-1.356 1.479-2.816 2.881-4.39 4.185l-27.495 22.798 6.063 30.066c3.346 16.591-2.786 33.464-16.005 44.037-7.947 6.357-17.93 9.858-28.109 9.858-6.375 0-12.558-1.32-18.37-3.922l-41.207-18.428-41.203 18.427c-5.82 2.604-12.003 3.925-18.376 3.925-10.177 0-20.159-3.501-28.109-9.859-13.217-10.571-19.35-27.445-16.004-44.037l6.063-30.067-27.49-22.796c-1.574-1.305-3.035-2.707-4.393-4.186-26.096 10.316-50.008 26.691-70.207 48.507-36.293 39.195-56.281 91.231-56.281 146.52 0 56.147 27.068 108.724 76.217 148.043 48.169 38.535 112.017 59.757 179.783 59.757 67.767 0 131.615-21.222 179.784-59.757 49.149-39.318 76.216-91.894 76.216-148.043 0-55.289-19.987-107.325-56.28-146.521z"></path><path d="m150.027 90.263 41.297 34.243-9.608 47.645c-1.11 5.507.948 11.172 5.335 14.68 2.708 2.166 6.023 3.287 9.37 3.287 2.074 0 4.161-.431 6.123-1.309l53.456-23.907 53.454 23.906c1.962.878 4.048 1.308 6.122 1.308 3.347 0 6.663-1.12 9.371-3.286 4.386-3.508 6.445-9.173 5.335-14.679l-9.606-47.646 41.299-34.243c4.867-4.035 6.681-10.688 4.536-16.636s-7.788-9.911-14.11-9.911h-81.401v-48.715c0-8.284-6.716-15-15-15s-15 6.716-15 15v48.716h-81.398c-6.322 0-11.966 3.964-14.11 9.911s-.332 12.601 4.535 16.636z"></path></g></svg>