<!-- icon666.com - MILLIONS OF FREE VECTOR ICONS --><svg xmlns="http://www.w3.org/2000/svg" xmlns:xlink="http://www.w3.org/1999/xlink" version="1.1" id="Layer_1" x="0px" y="0px" viewBox="0 0 488.521 488.521" style="enable-background:new 0 0 488.521 488.521;" xml:space="preserve"><g><path d="M416.303,97.878c-25.538-22.556-55.712-39.479-88.592-50.09l-0.223,0.739l42.409,63.641 c3.502,5.254,3.338,12.139-0.41,17.221s-10.275,7.272-16.332,5.479l-63.937-18.934l-32.664,46.678 c-2.807,4.011-7.395,6.4-12.29,6.4s-9.483-2.389-12.29-6.4l-32.664-46.678l-63.937,18.934c-6.054,1.794-12.583-0.397-16.332-5.479 c-3.748-5.082-3.912-11.967-0.41-17.221l42.409-63.641l-0.224-0.741c-32.882,10.611-63.058,27.535-88.597,50.092 C25.647,139.01,0,193.852,0,252.301s25.647,113.29,72.219,154.422c46.045,40.667,107.145,63.064,172.042,63.064 s125.997-22.396,172.042-63.064c46.571-41.132,72.219-95.974,72.219-154.422S462.874,139.01,416.303,97.878z"></path><path d="M189.927,59.278l-23.368,35.068l34.588-10.244c1.408-0.417,2.842-0.618,4.259-0.618c4.809,0,9.434,2.318,12.291,6.401 l26.567,37.965l26.567-37.965c3.7-5.286,10.361-7.615,16.55-5.783l34.588,10.244l-23.368-35.068 c-2.483-3.727-3.172-8.368-1.877-12.655l8.424-27.888l-52.807,33.721c-2.501,1.597-5.297,2.36-8.059,2.36c-0.014,0-0.026,0-0.035,0 c-2.707,0-5.444-0.732-7.905-2.263c-0.065-0.041-0.131-0.082-0.195-0.124L183.38,18.735l8.424,27.888 C193.099,50.91,192.41,55.552,189.927,59.278z"></path></g></svg>