<!-- icon666.com - MILLIONS OF FREE VECTOR ICONS --><svg version="1.1" id="Capa_1" xmlns="http://www.w3.org/2000/svg" xmlns:xlink="http://www.w3.org/1999/xlink" x="0px" y="0px" viewBox="0 0 511.999 511.999" style="enable-background:new 0 0 511.999 511.999;" xml:space="preserve"><g><g><path d="M449.004,0.511c-3.193-0.517-2.417,1.05-45.279,33.857c33.755,11.9,61.531,39.667,73.438,73.42 c11.612-15.13,23.224-30.261,34.835-45.393C446.592-3.004,451.428,0.905,449.004,0.511z"></path></g></g><g><g><path d="M348.766,71.921c-45.574,31.404-121.393,135.698-209.534,189.008C18.773,333.774-35.146,427.844,24.3,487.258 c51.035,52.134,142.722,23.299,226.328-114.942c59.843-98.932,186.03-184.402,196.996-225.19 C461.576,95.293,396.017,39.362,348.766,71.921z"></path></g></g></svg>